<?xml version="1.0" encoding="UTF-8" standalone="no"?>
<!-- Created with Inkscape (http://www.inkscape.org/) -->

<svg
   xmlns:dc="http://purl.org/dc/elements/1.1/"
   xmlns:cc="http://creativecommons.org/ns#"
   xmlns:rdf="http://www.w3.org/1999/02/22-rdf-syntax-ns#"
   xmlns:svg="http://www.w3.org/2000/svg"
   xmlns="http://www.w3.org/2000/svg"
   xmlns:xlink="http://www.w3.org/1999/xlink"
   xmlns:sodipodi="http://sodipodi.sourceforge.net/DTD/sodipodi-0.dtd"
   xmlns:inkscape="http://www.inkscape.org/namespaces/inkscape"
   width="169.33333mm"
   height="95.25mm"
   viewBox="0 0 169.33333 95.25"
   version="1.1"
   id="svg243"
   inkscape:version="0.92.4 (5da689c313, 2019-01-14)"
   sodipodi:docname="thumb.svg"
   inkscape:export-filename="/home/sherlock/git/libreoffice/libreofficeid.github.io/content/posts/QnA/thumb.png"
   inkscape:export-xdpi="150"
   inkscape:export-ydpi="150">
  <defs
     id="defs237">
    <linearGradient
       inkscape:collect="always"
       id="linearGradient1381">
      <stop
         style="stop-color:#40ba2e;stop-opacity:1;"
         offset="0"
         id="stop1377" />
      <stop
         style="stop-color:#3aa92a;stop-opacity:1"
         offset="1"
         id="stop1379" />
    </linearGradient>
    <linearGradient
       inkscape:collect="always"
       xlink:href="#linearGradient1381"
       id="linearGradient1383"
       x1="-111.69558"
       y1="123.17642"
       x2="-8.6799402"
       y2="51.520985"
       gradientUnits="userSpaceOnUse" />
    <clipPath
       clipPathUnits="userSpaceOnUse"
       id="clipPath1389">
      <rect
         y="67.002335"
         x="-180.37984"
         height="76.486214"
         width="135.97549"
         id="rect1391"
         style="opacity:1;vector-effect:none;fill:url(#linearGradient1393);fill-opacity:1;stroke:none;stroke-width:0.49999997;stroke-linecap:round;stroke-linejoin:round;stroke-miterlimit:4;stroke-dasharray:none;stroke-dashoffset:0;stroke-opacity:1;paint-order:fill markers stroke" />
    </clipPath>
    <linearGradient
       inkscape:collect="always"
       xlink:href="#linearGradient1381"
       id="linearGradient1393"
       gradientUnits="userSpaceOnUse"
       gradientTransform="matrix(0.80300485,0,0,0.80300485,-26.676632,18.69147)"
       x1="-111.69558"
       y1="123.17642"
       x2="-8.6799402"
       y2="51.520985" />
  </defs>
  <sodipodi:namedview
     id="base"
     pagecolor="#ffffff"
     bordercolor="#666666"
     borderopacity="1.0"
     inkscape:pageopacity="0.0"
     inkscape:pageshadow="2"
     inkscape:zoom="4.2715122"
     inkscape:cx="330.37932"
     inkscape:cy="83.611372"
     inkscape:document-units="mm"
     inkscape:current-layer="layer1"
     showgrid="false" />
  <metadata
     id="metadata240">
    <rdf:RDF>
      <cc:Work
         rdf:about="">
        <dc:format>image/svg+xml</dc:format>
        <dc:type
           rdf:resource="http://purl.org/dc/dcmitype/StillImage" />
        <dc:title></dc:title>
      </cc:Work>
    </rdf:RDF>
  </metadata>
  <g
     inkscape:label="Layer 1"
     inkscape:groupmode="layer"
     id="layer1"
     transform="translate(191.41006,-60.162605)">
    <image
       sodipodi:absref="/home/sherlock/git/libreoffice/libreofficeid.github.io/static/images/generic-thumb.png"
       y="60.162605"
       x="33.065479"
       id="image399"
       xlink:href="file:///home/sherlock/git/libreoffice/libreofficeid.github.io/static/images/generic-thumb.png"
       preserveAspectRatio="none"
       height="95.25"
       width="169.33333" />
    <rect
       style="opacity:1;vector-effect:none;fill:url(#linearGradient1383);fill-opacity:1;stroke:none;stroke-width:0.5;stroke-linecap:round;stroke-linejoin:round;stroke-miterlimit:4;stroke-dasharray:none;stroke-dashoffset:0;stroke-opacity:1;paint-order:fill markers stroke"
       id="rect402"
       width="169.33333"
       height="95.25"
       x="-191.41006"
       y="60.162605" />
    <g
       id="g475"
       transform="matrix(1.2453225,0,0,1.2453225,33.221011,-23.276907)"
       style="stroke-width:0.8030048"
       clip-path="url(#clipPath1389)">
      <path
         style="fill:#000000;fill-opacity:1;fill-rule:nonzero;stroke:none;stroke-width:0.02832822;opacity:0.079"
         d="m -150.71415,94.242246 c -0.70342,0.0057 -1.31105,0.09608 -1.85115,0.251468 9.9e-4,-4.95e-4 0.002,-0.0012 0.003,-0.0017 -0.007,0.002 -0.0134,0.0042 -0.0203,0.0062 -0.093,0.02707 -0.18441,0.05581 -0.27346,0.08673 -0.003,0.001 -0.006,0.0019 -0.009,0.0029 -0.09,0.0314 -0.17729,0.06528 -0.26351,0.100422 -0.12519,0.05103 -0.2463,0.106301 -0.36434,0.164741 -0.0342,0.01692 -0.0676,0.03477 -0.10125,0.05228 -0.1075,0.05599 -0.21309,0.114203 -0.31537,0.175946 -0.0161,0.0097 -0.0325,0.01917 -0.0486,0.02905 -0.10688,0.06591 -0.21007,0.135782 -0.31205,0.207482 -0.029,0.02037 -0.0581,0.0406 -0.0867,0.06141 -0.10256,0.07458 -0.20355,0.151262 -0.30209,0.231135 -0.13832,0.112131 -0.27305,0.229796 -0.40542,0.351059 -0.031,0.02841 -0.0614,0.05829 -0.0921,0.08714 -0.0989,0.09281 -0.19719,0.187221 -0.29421,0.28425 -0.0434,0.04337 -0.0867,0.08743 -0.12988,0.131544 -0.068,0.06954 -0.1365,0.141247 -0.20416,0.212462 -0.18173,0.191256 -0.36327,0.386038 -0.54734,0.586345 -0.094,0.102311 -0.1873,0.193236 -0.2801,0.278025 -0.0113,0.01036 -0.0227,0.02184 -0.034,0.03195 -0.0901,0.08048 -0.17962,0.152527 -0.26848,0.218273 -0.0103,0.0077 -0.0208,0.01577 -0.0311,0.02324 -0.0873,0.06311 -0.17371,0.119142 -0.25977,0.169721 -0.0143,0.0084 -0.0285,0.01683 -0.0427,0.0249 -0.0481,0.02725 -0.0955,0.04885 -0.14316,0.07262 -0.0579,0.02885 -0.1158,0.058 -0.17304,0.08216 -0.0449,0.01895 -0.0895,0.03512 -0.13404,0.05146 -0.0533,0.01957 -0.10657,0.03859 -0.15934,0.05477 -0.0458,0.01405 -0.0912,0.0264 -0.13653,0.03818 -0.0528,0.01369 -0.10552,0.02676 -0.15768,0.03776 -0.0408,0.0086 -0.0812,0.01647 -0.12159,0.02365 -0.0575,0.01021 -0.11472,0.01957 -0.17138,0.02739 -0.0369,0.0051 -0.0738,0.01024 -0.11038,0.01452 -0.0453,0.0053 -0.0901,0.0098 -0.13486,0.01411 -0.15784,0.01522 -0.31345,0.0272 -0.46435,0.03859 -0.0683,0.0052 -0.13859,0.01069 -0.2054,0.01701 -0.0312,0.003 -0.0617,0.0074 -0.0925,0.01079 -0.052,0.0057 -0.10417,0.01119 -0.1552,0.01867 -0.0386,0.0057 -0.0761,0.0138 -0.11411,0.02075 -0.0429,0.0078 -0.0864,0.01464 -0.12864,0.02448 -0.0442,0.01032 -0.0873,0.02485 -0.13072,0.03776 -0.0626,0.01864 -0.12457,0.04085 -0.18549,0.06598 -0.0475,0.01959 -0.0951,0.03803 -0.1415,0.06225 -0.0667,0.03481 -0.13224,0.07486 -0.19669,0.120753 -0.003,0.0024 -0.007,0.0042 -0.0104,0.0066 6.7e-4,-1.57e-4 0.001,-2.57e-4 0.002,-4.14e-4 -0.0855,0.06164 -0.16936,0.132461 -0.25064,0.217441 -0.51767,0.541136 -0.84301,1.446111 -0.88014,2.520911 -0.68233,0.79389 -1.16884,1.739 -1.25817,1.96236 -0.0708,0.17686 -0.17509,0.2671 -0.26807,0.31538 -0.33688,-0.3862 -0.63377,-0.69189 -0.77141,-0.74486 0,0 -0.65269,0.27497 -0.7901,0.72162 -0.0145,0.0471 0.003,0.12431 0.0374,0.21661 -1.78621,1.29663 -5.69579,4.93397 -4.83018,8.9736 0.95256,4.44541 3.06313,6.33545 6.683,7.95445 1.12425,0.50277 1.88445,1.59195 1.9412,2.82217 0.1176,2.55034 -0.94271,6.16474 0.0336,10.3517 0.0691,0.29645 0.19966,0.55795 0.37845,0.78927 -0.0611,0.98694 -0.39476,6.75001 0.0216,9.72385 0,0 3.23722,0.3608 6.53527,0 l 0.25769,-2.67984 c 0,0 0.87604,0.25772 1.64907,0.15478 0,0 -0.0515,1.8665 0.25769,2.68524 0,0 3.76206,0.56107 5.77174,-0.57265 0,0 0.0986,-1.14018 0.17263,-2.6815 0.11484,-0.22216 0.19793,-0.47929 0.3108,-0.78262 0.0948,-0.25486 0.2229,-0.45083 0.24774,-0.7291 0.0327,-0.36692 -0.0356,-0.7346 0.0473,-1.09841 0.10706,-0.4715 0.41737,-0.83246 0.52369,-0.94612 l 0.67763,0.28592 c 0,0 0.07,-0.12349 0.17595,-0.36766 l 0.68303,-1.42748 -0.17678,-0.0772 c 0.48312,-1.80634 0.94665,-4.95795 0.35148,-9.64128 0.50668,0.005 1.10685,-0.0903 1.80011,-0.30625 3.14353,-0.9793 4.89575,-1.8553 4.89575,-1.8553 0,0 0.47668,1.28857 1.037,2.57693 0.56031,1.28823 -0.67602,6.59627 -0.31537,7.52371 0.0411,0.10568 0.1191,0.21403 0.22325,0.32285 -0.44179,0.89935 -1.85334,4.19045 -1.46026,8.95285 0,0 6.13254,2.16452 15.0993,0 0,0 0.24572,-1.51208 0.23778,-3.52761 0.0505,-0.0913 0.10054,-0.18454 0.14855,-0.28591 0.46394,-0.97909 0.23192,-2.18998 0.2577,-2.62797 0.0102,-0.17346 0.0889,-0.44724 0.17553,-0.7154 0.51389,0.0179 0.92271,-0.0326 1.03533,-0.19794 0.34373,-0.50464 1.48079,-6.63793 -0.55439,-13.60336 1.46163,-0.76446 2.67625,-1.88431 2.87363,-3.52014 0.0151,-0.12515 0.0241,-0.24666 0.0307,-0.36683 0.002,-0.0283 0.003,-0.0566 0.004,-0.0846 0.005,-0.11643 0.007,-0.23135 0.004,-0.34317 -3.9e-4,-0.0143 -0.002,-0.0281 -0.002,-0.0423 -0.004,-0.0991 -0.0107,-0.19618 -0.0199,-0.29172 -0.003,-0.0307 -0.006,-0.0614 -0.01,-0.0917 -0.0125,-0.1071 -0.0275,-0.21223 -0.0469,-0.31495 -8e-4,-0.004 -0.002,-0.008 -0.003,-0.0125 -0.019,-0.0991 -0.0417,-0.19611 -0.0668,-0.2913 -0.006,-0.0218 -0.0114,-0.0436 -0.0174,-0.0651 -0.0276,-0.0983 -0.0576,-0.19502 -0.0913,-0.28923 -0.004,-0.011 -0.008,-0.0215 -0.0125,-0.0324 -0.0303,-0.0827 -0.0632,-0.16355 -0.0979,-0.24316 -0.0104,-0.0238 -0.0204,-0.0478 -0.0311,-0.0714 -0.0381,-0.0834 -0.0781,-0.16514 -0.12075,-0.24524 -0.062,-0.11635 -0.12932,-0.22901 -0.20001,-0.33861 -0.0154,-0.0239 -0.0319,-0.0469 -0.0477,-0.0705 -0.0566,-0.0845 -0.1155,-0.16705 -0.17677,-0.24773 -0.0114,-0.015 -0.0213,-0.0312 -0.0328,-0.0461 1.1e-4,0.001 3e-4,0.002 4.1e-4,0.004 -1.41001,-1.81868 -3.93249,-2.66883 -4.72187,-3.55458 -0.43997,-0.49368 -0.55038,-0.9935 -0.51664,-1.42623 0.007,-0.0836 0.0193,-0.16436 0.0353,-0.24234 0.004,-0.0212 0.01,-0.0415 0.0149,-0.0622 0.0132,-0.0556 0.0278,-0.10985 0.0444,-0.16183 0.008,-0.0237 0.0151,-0.0469 0.0232,-0.0697 0.0177,-0.05 0.0364,-0.0982 0.056,-0.14399 0.007,-0.0171 0.0145,-0.035 0.022,-0.0515 0.0102,-0.0225 0.0207,-0.0418 0.0311,-0.0631 0.0392,-0.08 0.0789,-0.15417 0.11619,-0.21537 0.004,-0.007 0.009,-0.0156 0.0133,-0.0224 0.0402,-0.0644 0.0755,-0.11463 0.10332,-0.1523 0.0286,-0.0381 0.0569,-0.0743 0.0569,-0.0743 l -0.006,8.2e-4 c 0.57402,-0.3831 1.08741,-0.98379 1.18182,-1.99099 0.12082,-1.28876 -0.34956,-1.77123 -0.93865,-1.78684 0.004,-7e-5 0.0295,-0.002 0.0295,-0.002 0.0219,-0.0321 0.0439,-0.0703 0.0652,-0.11245 0.003,-0.005 0.005,-0.0115 0.007,-0.0166 0.0179,-0.0365 0.0352,-0.0755 0.0523,-0.11868 0.006,-0.016 0.0124,-0.0346 0.0187,-0.0515 0.0133,-0.0361 0.0267,-0.0724 0.0394,-0.11245 0.008,-0.0245 0.0149,-0.0517 0.0224,-0.0776 0.009,-0.0318 0.0186,-0.0628 0.0274,-0.0967 0.03,-0.11491 0.0565,-0.24224 0.0805,-0.37886 0.003,-0.0182 0.006,-0.0354 0.01,-0.054 0.023,-0.13825 0.0423,-0.28646 0.0577,-0.44276 0.002,-0.02 0.004,-0.0395 0.006,-0.0598 0.0143,-0.15811 0.0241,-0.3239 0.029,-0.49671 0.001,-0.0404 0.002,-0.0809 0.002,-0.122 7.1e-4,-0.0491 0.001,-0.0981 0.001,-0.14814 -1.4e-4,-0.0516 -0.001,-0.10386 -0.002,-0.15644 -0.001,-0.0575 -0.003,-0.11495 -0.005,-0.17346 -0.002,-0.0447 -0.005,-0.09 -0.007,-0.13528 -0.003,-0.0611 -0.007,-0.12216 -0.0112,-0.18424 -0.004,-0.0516 -0.009,-0.10381 -0.0137,-0.15603 -0.006,-0.0607 -0.0109,-0.12118 -0.0178,-0.18258 -0.005,-0.0448 -0.0116,-0.0901 -0.0174,-0.13528 -0.009,-0.0708 -0.0177,-0.1414 -0.0286,-0.21288 -0.006,-0.036 -0.0123,-0.0725 -0.0183,-0.10872 -0.0127,-0.0769 -0.0253,-0.15371 -0.0403,-0.23113 -0.006,-0.0331 -0.0143,-0.0664 -0.0212,-0.0996 -0.0871,-0.42379 -0.20789,-0.85292 -0.37181,-1.27519 -3.8e-4,-9.8e-4 -8.7e-4,-0.002 -10e-4,-0.003 -0.0324,-0.0833 -0.0676,-0.166 -0.10332,-0.24857 -0.0144,-0.0334 -0.0282,-0.0668 -0.0432,-0.1 -0.0366,-0.0811 -0.0762,-0.16137 -0.11619,-0.24151 -0.0156,-0.0313 -0.0304,-0.0627 -0.0465,-0.0938 -0.0376,-0.07251 -0.0778,-0.143887 -0.11827,-0.215374 -0.0239,-0.04224 -0.0472,-0.08472 -0.0722,-0.126563 -0.0392,-0.06561 -0.0807,-0.130082 -0.12242,-0.194617 -0.0275,-0.0425 -0.0547,-0.085 -0.0834,-0.12698 -0.046,-0.06736 -0.0941,-0.133664 -0.14317,-0.199597 -0.0273,-0.03673 -0.0547,-0.0733 -0.083,-0.109552 -0.0513,-0.06576 -0.10443,-0.130534 -0.15893,-0.194619 -0.0313,-0.03674 -0.0627,-0.0734 -0.095,-0.109549 -0.0559,-0.06248 -0.11387,-0.123638 -0.17304,-0.184245 -0.034,-0.03482 -0.0686,-0.06916 -0.10374,-0.103327 -0.0616,-0.05993 -0.12461,-0.118972 -0.18964,-0.176774 -0.0352,-0.03127 -0.0713,-0.06192 -0.10747,-0.09254 -0.0684,-0.05781 -0.13785,-0.114786 -0.20998,-0.170137 -0.0402,-0.03082 -0.0819,-0.06044 -0.12324,-0.09046 -0.071,-0.05155 -0.1425,-0.102793 -0.21703,-0.151876 -0.0467,-0.03077 -0.0954,-0.05988 -0.14358,-0.08963 -0.0748,-0.04627 -0.14992,-0.09239 -0.22823,-0.136107 -0.0491,-0.02741 -0.10055,-0.05289 -0.15104,-0.07926 -0.083,-0.04336 -0.16589,-0.08697 -0.25272,-0.127394 -0.01,-0.0044 -0.0182,-0.0093 -0.0278,-0.01369 0.005,0.0025 0.0144,0.008 0.0199,0.01079 -0.26363,-0.122325 -0.54279,-0.232573 -0.84279,-0.325332 -5.22205,-1.61476 -6.49335,1.820623 -7.5926,1.889333 -1.0994,0.0687 -3.50416,0.790277 -4.01935,3.81352 -0.31854,1.86811 0.39879,3.22264 0.99384,3.98656 -0.32437,0.18303 -0.65903,0.5836 -0.65066,1.44159 0.0114,1.14656 0.79053,1.64883 1.30589,1.71753 0,0 -0.16102,0.674 0.26724,1.47022 -4.4e-4,1.6e-4 -8.1e-4,2.6e-4 -10e-4,4.2e-4 0.009,0.0173 0.0208,0.0352 0.0307,0.0527 0.007,0.0115 0.0123,0.0229 0.0191,0.0344 -0.0309,0.011 -0.0553,0.0166 -0.088,0.029 -1.04847,0.40075 -1.05761,0.86352 -1.23369,0.90297 -0.17608,0.0394 -0.49134,-0.24644 -0.74445,-0.37472 -0.25312,-0.12797 -0.98605,0.1948 -1.13949,0.33488 -0.15344,0.14008 -0.95975,0.90163 -0.67598,1.81505 0.15564,0.50009 0.16539,0.81062 0.14275,0.98969 l 1.30714,0.49589 -1.44034,-0.5461 c 0,0 -2.20129,4.21477 -3.49732,7.01248 -1.5134,-4.66078 -3.81975,-6.34936 -3.81975,-6.34936 0,0 -1.70363,-1.07621 -3.65168,-1.78352 -8.1e-4,-2.9e-4 -0.002,-5.4e-4 -0.002,-8.3e-4 0.16695,-0.0346 0.33646,-0.0742 0.51082,-0.12241 2.67973,-0.77303 3.86498,-3.90067 3.86498,-3.90067 0,0 2.67965,-0.0671 2.57651,-2.48895 -0.0852,-2.00377 -1.53087,-1.33257 -2.03291,-1.03907 0.19386,-0.5778 0.31685,-1.19387 0.28093,-1.80053 -0.0516,-0.87097 0.15477,-1.92207 1.03077,-3.4579 0.87601,-1.535823 0.41204,-6.122185 -3.71061,-6.740678 -0.64416,-0.09661 -1.2243,-0.139168 -1.75115,-0.134862 z m -10.22721,10.569554 c 0.0107,0.0226 0.0231,0.045 0.034,0.0676 0.0331,0.0683 0.0707,0.13635 0.10623,0.20458 0.0518,0.0996 0.10273,0.1991 0.15976,0.29836 0.005,0.01 0.01,0.0191 0.0154,0.0286 v 4.1e-4 c 8.4e-4,-6e-5 0.002,-3.5e-4 0.002,-4.1e-4 0.0822,0.14164 0.16669,0.28318 0.25977,0.42368 0,0 0.19,-0.1292 0.66934,-0.0988 -0.51176,-0.0143 -1.27017,0.14783 -1.68808,1.11211 -0.6699,1.54589 1.08207,3.29809 3.0919,3.24668 0.24287,0.46136 0.8068,1.60922 1.84161,2.5541 0.004,0.23395 0.005,0.33806 0.007,0.64112 -1.3941,0.38978 -2.44566,1.55905 -3.85253,1.8466 -1.41367,0.28896 -3.09303,-0.12375 -4.02515,-1.27975 -1.67618,-2.07828 -0.28966,-5.26028 1.63745,-6.95937 0.0271,0.0327 0.11453,0.13984 0.11453,0.13984 0,0 1.13368,-0.756 1.13368,-0.89341 0,-0.0468 -0.24768,-0.40138 -0.58095,-0.84404 0.064,-0.19964 0.1985,-0.43571 0.48717,-0.43571 0.1574,0 0.36306,-0.0175 0.58634,-0.0523 z m 1.77065,1.00463 c 0.002,3.5e-4 0.003,4.7e-4 0.004,8.3e-4 v 4.1e-4 c 0,0 -0.004,-0.001 -0.004,-0.001 z m 23.03674,6.22446 c 7.3e-4,7.1e-4 0.001,10e-4 0.002,0.002 0.0233,0.0225 0.0474,0.0453 0.071,0.0685 0,0 4.1e-4,-4.2e-4 4.1e-4,-4.2e-4 0.0918,0.0888 0.18847,0.18085 0.28882,0.27554 l -1.00006,0.71457 c -0.0452,-0.0463 -0.0823,-0.0904 -0.0984,-0.13694 -0.0714,-0.20607 0.1853,-0.65786 0.73614,-0.9233 z m 11.79536,12.3149 c 0.36051,0.55899 1.02381,1.79253 1.36482,3.7658 0.48108,2.78271 -0.18009,5.097 -0.18009,5.097 0,0 -1.29703,-3.86074 -1.74368,-5.30365 -0.33329,-1.07657 0.003,-2.72504 0.19503,-3.49359 0.11986,-0.0213 0.23475,-0.0401 0.36392,-0.0656 z"
         id="path1399"
         inkscape:connector-curvature="0" />
      <path
         inkscape:connector-curvature="0"
         id="path16"
         style="fill:#f15766;fill-opacity:1;fill-rule:nonzero;stroke:none;stroke-width:0.02832822"
         d="m -124.52393,109.8076 c 0,0 -1.17581,1.36603 0,2.68538 1.17581,1.31935 6.2004,2.556 5.65911,7.03946 -0.54097,4.48346 -8.71364,5.10178 -8.71364,5.10178 l -15.48096,-2.61527 3.1487,-7.63027 3.83605,-2.74057 11.55074,-1.84051" />
      <path
         inkscape:connector-curvature="0"
         id="path18"
         style="fill:#e63d4e;fill-opacity:1;fill-rule:nonzero;stroke:none;stroke-width:0.02832822"
         d="m -138.54609,113.41379 c 0.64568,0.82129 1.55831,1.40644 2.44768,1.96833 0.72492,0.45766 1.95276,1.13132 2.71589,0.36899 0.73891,-0.73766 0.2451,-2.08766 -0.20376,-2.83475 -0.32905,-0.54789 -0.75777,-1.02441 -1.21825,-1.47059 l -1.27014,0.20234 -2.47142,1.76568" />
      <path
         inkscape:connector-curvature="0"
         id="path20"
         style="fill:#e63d4e;fill-opacity:1;fill-rule:nonzero;stroke:none;stroke-width:0.02832822"
         d="m -129.62682,116.12622 c 0.9488,-0.36945 1.85294,-1.67308 2.38795,-2.484 0.5677,-0.86043 1.03164,-1.85026 1.90104,-2.40429 0.0957,-0.0609 0.1951,-0.11524 0.2965,-0.16617 0.0547,-0.72649 0.5174,-1.26416 0.5174,-1.26416 l -2.33134,0.37133 c -0.27356,0.25154 -0.53815,0.51677 -0.81657,0.76077 -1.11639,0.97772 -2.5057,1.64666 -3.46549,2.7783 -0.23615,0.27827 -0.44838,0.59427 -0.50891,0.95398 -0.18111,1.07881 1.07787,1.82087 2.01942,1.45424" />
      <path
         inkscape:connector-curvature="0"
         id="path22"
         style="fill:#e63d4e;fill-opacity:1;fill-rule:nonzero;stroke:none;stroke-width:0.02832822"
         d="m -127.57846,124.63422 c 0,0 8.17267,-0.61832 8.71364,-5.10178 0.17813,-1.47467 -0.2462,-2.59798 -0.93763,-3.48876 0.0736,0.81548 -0.0879,1.633 -0.40168,2.39769 -0.4193,1.02221 -1.10444,1.93563 -1.97462,2.61732 -0.49853,0.39052 -1.07818,0.73309 -1.3596,1.30048 -0.18299,0.36898 -0.24431,0.83497 -0.58468,1.06702 -0.32418,0.22057 -0.77271,0.12545 -1.1123,-0.0706 -0.33958,-0.19589 -0.62446,-0.48014 -0.97504,-0.65575 -1.20458,-0.60339 -2.79922,0.22655 -3.95365,-0.46819 -1.25332,0.48249 -2.58131,0.76989 -3.92173,0.84849 -0.84959,0.05 -1.73267,0.01 -2.49877,-0.36049 -0.76627,-0.37009 -1.39026,-1.13478 -1.37847,-1.98548 0.005,-0.33942 -0.0561,-0.85084 -0.38894,-0.78559 -0.10785,0.0209 -0.19165,0.1113 -0.29887,0.13426 -0.16586,0.0356 -0.31647,-0.0954 -0.43548,-0.21617 -0.48596,-0.49303 -0.9881,-1.01215 -1.1961,-1.67261 -0.1635,-0.51897 -0.12891,-1.07661 -0.18221,-1.61853 -0.019,-0.19259 -0.0535,-0.38989 -0.11005,-0.57808 l -2.48478,6.02149 15.48096,2.61527" />
      <path
         inkscape:connector-curvature="0"
         id="path24"
         style="fill:#741c6d;fill-opacity:1;fill-rule:nonzero;stroke:none;stroke-width:0.02832822"
         d="m -136.54066,134.78619 c 0,0 -2.06124,3.60747 -1.59762,9.22448 0,0 6.13249,2.16452 15.09925,0 0,0 1.11669,-6.74219 -1.45141,-10.79189 -2.56811,-4.04951 -12.05022,1.56741 -12.05022,1.56741" />
      <path
         inkscape:connector-curvature="0"
         id="path26"
         style="fill:#ffafac;fill-opacity:1;fill-rule:nonzero;stroke:none;stroke-width:0.02832822"
         d="m -124.45601,136.46121 c 0,0 -0.51551,0.30921 -1.00492,0.8244 -0.48957,0.51537 -0.92757,0.43799 -0.87616,0.87604 0.0516,0.438 1.18524,0.41233 1.18524,0.41233 0,0 -0.74724,2.06141 -0.38643,2.8085 0.36081,0.74726 0.95335,0.15468 1.39135,0.23189 0.43816,0.0774 1.0307,-0.438 1.49449,-1.41715 0.46394,-0.97909 0.23189,-2.19014 0.25767,-2.62813 0.0258,-0.43818 0.46379,-1.52013 0.46379,-1.52013 l -2.52503,0.41225" />
      <path
         inkscape:connector-curvature="0"
         id="path28"
         style="fill:#dc35d0;fill-opacity:1;fill-rule:nonzero;stroke:none;stroke-width:0.02832822"
         d="m -124.49044,133.21878 c 0,0 -1.29687,-3.86073 -1.74352,-5.30364 -0.44665,-1.44276 0.30925,-3.91653 0.30925,-3.91653 0,0 1.13367,1.33994 1.61459,4.12278 0.48108,2.78271 -0.18032,5.09739 -0.18032,5.09739 z m 2.4307,-11.19983 c -1.75232,-5.57846 -6.9956,-7.77397 -11.27939,-6.85662 0,0 -2.30242,0.65197 -3.93714,2.94904 -1.63488,2.29707 -3.64471,2.99291 -3.64471,2.99291 l 1.63534,-5.08371 -2.56291,-0.97222 c 0,0 -3.50417,6.70004 -4.27719,8.81284 -0.77303,2.11298 0.46378,3.60746 3.60729,2.62833 3.14352,-0.9793 4.89568,-1.8553 4.89568,-1.8553 0,0 0.47683,1.28839 1.03715,2.57675 0.56031,1.28823 -0.67634,6.59626 -0.31569,7.5237 0.36065,0.9277 3.29805,2.06155 6.23546,1.90685 2.93741,-0.15458 5.82325,-1.70062 5.82325,-1.70062 0,0 -0.41222,0.97898 -0.25768,1.28825 0.15454,0.30925 3.55573,0.95617 3.91654,0.42649 0.36065,-0.52949 1.59746,-7.25448 -0.876,-14.63669" />
      <path
         inkscape:connector-curvature="0"
         id="path30"
         style="fill:#741c6d;fill-opacity:1;fill-rule:nonzero;stroke:none;stroke-width:0.02832822"
         d="m -133.76802,115.4546 c 0,0 -0.88119,0.23377 -1.57372,1.47546 l -1.08777,4.53534 4.14026,3.16882 -1.06828,-7.15564 -0.41049,-2.02398" />
      <path
         inkscape:connector-curvature="0"
         id="path32"
         style="fill:#dc35d0;fill-opacity:1;fill-rule:nonzero;stroke:none;stroke-width:0.02832822"
         d="m -133.44682,115.19677 c 0,0 -0.8812,0.23378 -1.57357,1.47562 l -1.08793,4.53534 3.81907,3.42649 -0.74709,-7.41331 -0.41048,-2.02414" />
      <path
         inkscape:connector-curvature="0"
         id="path34"
         style="fill:#741c6d;fill-opacity:1;fill-rule:nonzero;stroke:none;stroke-width:0.02832822"
         d="m -129.70825,115.19079 c 0,0 0.91719,0.24887 1.55045,1.34843 0.73436,1.27549 0.73436,4.77117 0.73436,4.77117 l -4.86581,3.32383 2.42834,-7.27166 0.15266,-2.17177" />
      <path
         inkscape:connector-curvature="0"
         id="path36"
         style="fill:#dc35d0;fill-opacity:1;fill-rule:nonzero;stroke:none;stroke-width:0.02832822"
         d="m -129.94423,115.04898 c 0,0 0.97897,0.33503 1.59746,1.44308 0.61833,1.10789 0.59254,4.50908 0.59254,4.50908 l -4.53502,3.63308 2.19205,-7.41331 0.15297,-2.17193" />
      <path
         inkscape:connector-curvature="0"
         id="path38"
         style="fill:#87177f;fill-opacity:1;fill-rule:nonzero;stroke:none;stroke-width:0.02832822"
         d="m -133.44682,115.19677 c 0,0 -1.49622,0.39351 -0.95524,3.12465 0.54113,2.73129 2.11281,6.3128 2.11281,6.3128 0,0 2.62832,-5.38524 3.06632,-6.93113 0.43816,-1.54605 -0.58122,-2.61701 -0.89549,-2.65474 -0.31412,-0.0379 -3.3284,0.14842 -3.3284,0.14842" />
      <path
         inkscape:connector-curvature="0"
         id="path40"
         style="fill:#ffafac;fill-opacity:1;fill-rule:nonzero;stroke:none;stroke-width:0.02832822"
         d="m -133.35957,114.55737 c 0,0 -0.27182,1.52231 0,1.83155 0.27167,0.30924 0.93118,0.91657 1.58064,0.83199 0.6493,-0.0847 1.73141,-0.98653 1.68,-1.47609 -0.0516,-0.48957 -0.30924,-1.78943 -0.30924,-1.78943 l -2.9514,0.60198" />
      <path
         inkscape:connector-curvature="0"
         id="path42"
         style="fill:#ff756f;fill-opacity:1;fill-rule:nonzero;stroke:none;stroke-width:0.02832822"
         d="m -133.4572,115.30744 c 0.65763,-0.006 2.44249,-0.0727 3.18864,-0.61706 -0.0725,-0.39635 -0.13961,-0.73499 -0.13961,-0.73499 l -2.9514,0.60198 c 0,0 -0.0627,0.35106 -0.0976,0.75007" />
      <path
         inkscape:connector-curvature="0"
         id="path44"
         style="fill:#741c6d;fill-opacity:1;fill-rule:nonzero;stroke:none;stroke-width:0.02832822"
         d="m -131.04395,136.34907 c -1.06608,-4.37149 -1.36714,-7.32481 -1.43191,-9.03244 -0.0704,-1.85609 0.10989,-2.66464 0.11775,-2.69829 l 0.13804,0.0318 c -0.007,0.0324 -0.71785,3.33548 1.31384,11.66539 l -0.13772,0.0336" />
      <path
         inkscape:connector-curvature="0"
         id="path46"
         style="fill:#741c6d;fill-opacity:1;fill-rule:nonzero;stroke:none;stroke-width:0.02832822"
         d="m -130.87196,128.34468 c 0,0.23724 -0.19243,0.42933 -0.42935,0.42933 -0.23724,0 -0.42951,-0.19209 -0.42951,-0.42933 0,-0.23729 0.19227,-0.42954 0.42951,-0.42954 0.23692,0 0.42935,0.19225 0.42935,0.42954" />
      <path
         inkscape:connector-curvature="0"
         id="path48"
         style="fill:#741c6d;fill-opacity:1;fill-rule:nonzero;stroke:none;stroke-width:0.02832822"
         d="m -130.25347,132.0549 c 0,0.2373 -0.19244,0.42951 -0.42952,0.42951 -0.23723,0 -0.42951,-0.19221 -0.42951,-0.42951 0,-0.23705 0.19228,-0.42934 0.42951,-0.42934 0.23708,0 0.42952,0.19229 0.42952,0.42934" />
      <path
         inkscape:connector-curvature="0"
         id="path50"
         style="fill:#741c6d;fill-opacity:1;fill-rule:nonzero;stroke:none;stroke-width:0.02832822"
         d="m -139.59849,120.39398 c -0.76564,0.51739 -1.32249,0.7103 -1.32249,0.7103 0,0 -0.84441,2.97686 -1.4632,4.15267 0.59333,-0.97615 2.42677,-4.01402 2.78569,-4.86297" />
      <path
         inkscape:connector-curvature="0"
         id="path52"
         style="fill:#741c6d;fill-opacity:1;fill-rule:nonzero;stroke:none;stroke-width:0.02832822"
         d="m -142.38418,125.25695 c -0.11682,0.19212 -0.18583,0.30499 -0.18583,0.30499 0.0586,-0.0781 0.1209,-0.18173 0.18583,-0.30499" />
      <path
         inkscape:connector-curvature="0"
         id="path54"
         style="fill:#ffafac;fill-opacity:1;fill-rule:nonzero;stroke:none;stroke-width:0.02832822"
         d="m -138.36152,106.54601 c -0.10298,-0.0341 -1.25222,0 -1.23681,1.58048 0.0114,1.14657 0.79031,1.64903 1.30567,1.71773 0,0 -0.27497,1.13384 0.82443,2.19865 1.09941,1.06514 2.81714,2.71417 5.56557,2.64562 2.74843,-0.0689 4.80968,-2.06077 5.6687,-4.13963 0.48092,-0.25799 2.67973,-0.5328 2.88584,-2.73161 0.20611,-2.19865 -1.30551,-2.06124 -2.19881,-1.23681 -0.17184,-0.96184 -2.88584,-6.630535 -2.88584,-6.630535 l -7.83292,0.893285 -2.30194,2.88583 0.20611,2.81699" />
      <path
         inkscape:connector-curvature="0"
         id="path56"
         style="fill:#f15766;fill-opacity:1;fill-rule:nonzero;stroke:none;stroke-width:0.02832822"
         d="m -136.2572,102.16584 c 0.41222,-0.54114 0.82443,-0.30924 0.82443,-0.30924 3.99405,2.91162 9.70112,4.99865 9.70112,4.99865 0.63137,-0.83733 1.47451,-0.82726 1.47451,-0.82726 0.70574,-1.03353 1.14956,-7.418035 -4.0725,-9.032635 -5.22205,-1.61476 -6.49329,1.82086 -7.59254,1.88957 -1.0994,0.0687 -3.50432,0.79016 -4.01951,3.813405 -0.51551,3.02324 1.6833,4.70671 1.6833,4.70671 0.47243,-3.67602 1.58897,-4.69807 2.00119,-5.2392" />
      <path
         inkscape:connector-curvature="0"
         id="path58"
         style="fill:#332d7a;fill-opacity:1;fill-rule:nonzero;stroke:none;stroke-width:0.02832822"
         d="m -136.71847,104.93203 c 0.13426,-0.14856 1.79618,0.30186 2.48573,1.1557 0,0 -0.18332,-0.84582 -1.11576,-1.22251 -0.93244,-0.37653 -1.36997,0.0668 -1.36997,0.0668" />
      <path
         inkscape:connector-curvature="0"
         id="path60"
         style="fill:#332d7a;fill-opacity:1;fill-rule:nonzero;stroke:none;stroke-width:0.02832822"
         d="m -130.28397,107.20725 c 0,0 1.58126,-0.0716 2.41199,0.41679 0,0 -0.0638,-0.60293 -1.10947,-0.76674 -1.01718,-0.15943 -1.30252,0.34995 -1.30252,0.34995" />
      <path
         inkscape:connector-curvature="0"
         id="path62"
         style="fill:#332d7a;fill-opacity:1;fill-rule:nonzero;stroke:none;stroke-width:0.02832822"
         d="m -134.64103,108.09646 c 0,0.48108 -0.22922,0.87129 -0.51189,0.87129 -0.28283,0 -0.51221,-0.39021 -0.51221,-0.87129 0,-0.48124 0.22938,-0.87128 0.51221,-0.87128 0.28267,0 0.51189,0.39004 0.51189,0.87128" />
      <path
         inkscape:connector-curvature="0"
         id="path64"
         style="fill:#ff918d;fill-opacity:1;fill-rule:nonzero;stroke:none;stroke-width:0.02832822"
         d="m -133.50028,108.99401 -0.57965,1.62324 1.48159,0.10297 -1.12078,-0.352 0.21884,-1.37421" />
      <path
         inkscape:connector-curvature="0"
         id="path66"
         style="fill:#f99398;fill-opacity:1;fill-rule:nonzero;stroke:none;stroke-width:0.02832822"
         d="m -126.5814,110.27122 c 0,0.55072 -0.44633,0.99705 -0.99706,0.99705 -0.55072,0 -0.9969,-0.44633 -0.9969,-0.99705 0,-0.55057 0.44618,-0.99706 0.9969,-0.99706 0.55073,0 0.99706,0.44649 0.99706,0.99706" />
      <path
         inkscape:connector-curvature="0"
         id="path68"
         style="fill:#f99398;fill-opacity:1;fill-rule:nonzero;stroke:none;stroke-width:0.02832822"
         d="m -136.07467,110.07234 c 0,0.55056 -0.44634,0.99706 -0.99691,0.99706 -0.55056,0 -0.99705,-0.4465 -0.99705,-0.99706 0,-0.55072 0.44649,-0.99706 0.99705,-0.99706 0.55057,0 0.99691,0.44634 0.99691,0.99706" />
      <path
         inkscape:connector-curvature="0"
         id="path70"
         style="fill:#933131;fill-opacity:1;fill-rule:nonzero;stroke:none;stroke-width:0.02832822"
         d="m -132.24759,111.68505 c 0,0 0.40813,-0.98102 1.59385,-0.37464 0,0 -0.30437,-0.4968 -0.90524,-0.38251 -0.66707,0.12657 -0.77618,0.64129 -0.68861,0.75715" />
      <path
         inkscape:connector-curvature="0"
         id="path72"
         style="fill:#ff918d;fill-opacity:1;fill-rule:nonzero;stroke:none;stroke-width:0.02832822"
         d="m -137.25788,112.0468 c 0.76423,-0.31898 0.84881,-0.60008 0.74992,-0.67618 -0.097,-0.0746 -0.2899,-0.50387 -1.5187,-0.0558 0.12766,0.23677 0.30673,0.48438 0.55843,0.72806 0.0233,0.0225 0.047,0.0454 0.0706,0.0686 0.045,-0.0226 0.0912,-0.0444 0.13976,-0.0646" />
      <path
         inkscape:connector-curvature="0"
         id="path74"
         style="fill:#ffafac;fill-opacity:1;fill-rule:nonzero;stroke:none;stroke-width:0.02832822"
         d="m -141.71539,115.09882 2.25367,0.85493 c 0.10094,-0.0854 0.27183,-0.24682 0.33126,-0.27748 0.44948,-0.23299 1.55752,-1.06214 1.52011,-1.70075 -0.0374,-0.63845 -0.52133,-0.79409 -0.59632,-1.01152 -0.0753,-0.21743 0.21036,-0.71077 0.82617,-0.96751 0.61581,-0.25673 0.68373,-0.48327 0.60402,-0.54459 -0.0797,-0.0615 -0.23976,-0.42165 -1.28822,-0.0209 -1.04847,0.40074 -1.05774,0.86343 -1.23382,0.90288 -0.17608,0.0394 -0.49099,-0.24636 -0.7441,-0.37464 -0.25312,-0.12797 -0.98622,0.19463 -1.13966,0.33471 -0.15344,0.14008 -0.95979,0.90163 -0.67602,1.81505 0.15564,0.50009 0.16555,0.81075 0.14291,0.98982" />
      <path
         inkscape:connector-curvature="0"
         id="path76"
         style="fill:#ff918d;fill-opacity:1;fill-rule:nonzero;stroke:none;stroke-width:0.02832822"
         d="m -139.0256,114.80215 c 0.38989,-0.33565 -0.0896,-0.72476 -0.31569,-0.96466 -0.13741,-0.14574 -0.24761,-0.38236 -0.0725,-0.54885 0.13914,-0.13237 0.37071,-0.10643 0.54428,-0.091 0.3869,0.0343 0.69489,0.12405 0.93118,0.45106 0.053,0.0732 0.17593,0.002 0.12232,-0.0716 -0.20611,-0.28519 -0.4476,-0.43691 -0.7974,-0.49161 -0.25798,-0.0401 -0.59867,-0.10377 -0.83276,0.0498 -0.1852,0.12137 -0.24715,0.35043 -0.16665,0.55323 0.11335,0.28551 0.86185,0.69081 0.48689,1.01326 -0.0692,0.0596 0.0315,0.15957 0.10031,0.1003 v 0" />
      <path
         inkscape:connector-curvature="0"
         id="path78"
         style="fill:#ff918d;fill-opacity:1;fill-rule:nonzero;stroke:none;stroke-width:0.02832822"
         d="m -140.93482,113.2833 c 0.27607,-0.0378 0.33314,0.62761 0.38817,0.79315 0.0569,0.17168 0.14621,0.32843 0.29792,0.43329 0.39303,0.27197 0.88465,0.11397 1.28963,-0.0368 0.0847,-0.0316 0.048,-0.16853 -0.0379,-0.13662 -0.55732,0.20768 -1.24907,0.3333 -1.44134,-0.39744 -0.074,-0.28141 -0.12405,-0.84833 -0.53422,-0.7922 -0.0898,0.0122 -0.0516,0.14872 0.0378,0.13661 v 0" />
      <path
         inkscape:connector-curvature="0"
         id="path80"
         style="fill:#332d7a;fill-opacity:1;fill-rule:nonzero;stroke:none;stroke-width:0.02832822"
         d="m -128.57536,108.58996 c 0,-0.49302 -0.2289,-0.89282 -0.51111,-0.89282 -0.2822,0 -0.51095,0.3998 -0.51095,0.89282 0,0.49334 0.22875,0.89314 0.51095,0.89314 0.28221,0 0.51111,-0.3998 0.51111,-0.89314" />
      <path
         inkscape:connector-curvature="0"
         id="path82"
         style="fill:#e63d4e;fill-opacity:1;fill-rule:nonzero;stroke:none;stroke-width:0.02832822"
         d="m -125.2218,106.36396 v 0 c 0.49852,-0.34132 0.96466,-0.33597 0.96466,-0.33597 0.66628,-0.97568 1.09815,-6.719845 -3.24963,-8.718045 0.55796,0.27434 4.14828,2.3304 2.28497,9.054015" />
      <path
         inkscape:connector-curvature="0"
         id="path84"
         style="fill:#e63d4e;fill-opacity:1;fill-rule:nonzero;stroke:none;stroke-width:0.02832822"
         d="m -135.66513,101.80739 v 0 c 0.14039,-0.002 0.23236,0.0492 0.23236,0.0492 3.99405,2.91163 9.70112,4.99865 9.70112,4.99865 -3.48263,-1.52875 -6.68636,-4.46616 -8.00901,-5.37644 -1.32265,-0.91043 -1.92447,0.32859 -1.92447,0.32859" />
      <path
         inkscape:connector-curvature="0"
         id="path86"
         style="fill:#e63d4e;fill-opacity:1;fill-rule:nonzero;stroke:none;stroke-width:0.02832822"
         d="m -137.27926,102.45778 c -0.94486,0.99627 -0.97913,4.94726 -0.97913,4.94726 0.47243,-3.67602 1.58897,-4.69807 2.00119,-5.2392 0.14039,-0.18426 0.28063,-0.27875 0.40482,-0.32339 v 0 c -0.0575,0.024 -0.48217,-0.38094 -1.42688,0.61533" />
      <path
         inkscape:connector-curvature="0"
         id="path88"
         style="fill:#332d7a;fill-opacity:1;fill-rule:nonzero;stroke:none;stroke-width:0.02832822"
         d="m -161.80354,134.57305 c 0,0 -0.45451,6.85395 0,10.10044 0,0 3.23737,0.3608 6.53542,0 l 0.25768,-2.67973 c 0,0 0.876,0.25764 1.64903,0.1547 0,0 -0.0515,1.86663 0.25768,2.68537 0,0 3.762,0.56112 5.77168,-0.5726 0,0 0.56691,-6.287 0,-9.63679 -0.56692,-3.3496 -14.47149,-0.0514 -14.47149,-0.0514" />
      <path
         inkscape:connector-curvature="0"
         id="path90"
         style="fill:#21a4df;fill-opacity:1;fill-rule:nonzero;stroke:none;stroke-width:0.02832822"
         d="m -144.34749,126.55948 c -1.08211,-8.11638 -4.81832,-10.84768 -4.81832,-10.84768 0,0 -1.70374,-1.0763 -3.65179,-1.78361 -1.31856,-0.47856 -2.93191,-0.88071 -4.34841,-0.75211 -1.71695,0.15611 -2.85943,1.6322 -4.46476,1.96031 -1.41367,0.28896 -3.09336,-0.12373 -4.02548,-1.27973 -1.93265,-2.39627 0.2061,-6.26124 2.55081,-7.62682 0.18032,-0.18048 -1.72638,-2.67989 -2.08719,-2.67989 -0.36065,0 -6.75072,4.4319 -5.66857,9.48212 0.95256,4.44541 3.06305,6.33545 6.68292,7.95445 1.12425,0.50277 1.88439,1.59211 1.94114,2.82233 0.1176,2.55034 -0.94282,6.16485 0.0335,10.35181 0.52871,2.26752 4.58643,2.5252 7.26616,2.37063 2.67973,-0.15452 6.69941,-1.59758 6.69941,-1.59758 -0.24054,1.47715 -0.37795,1.92379 -0.37795,1.92379 l 3.26379,1.45173 c 0,0 2.08703,-3.63321 1.00476,-11.74975" />
      <path
         inkscape:connector-curvature="0"
         id="path92"
         style="fill:#3981c9;fill-opacity:1;fill-rule:nonzero;stroke:none;stroke-width:0.02832822"
         d="m -153.55635,114.02929 c 0,0 3.35999,2.47283 0.57713,6.5524 0,0 -0.94046,-1.77794 -2.33182,-3.24664 l 1.75469,-3.30576" />
      <path
         inkscape:connector-curvature="0"
         id="path94"
         style="fill:#3981c9;fill-opacity:1;fill-rule:nonzero;stroke:none;stroke-width:0.02832822"
         d="m -158.04925,114.54793 c 0,0 -2.17884,2.93317 -0.0832,6.00814 0,0 0.52495,-1.89727 2.74089,-3.23706 l -2.65772,-2.77108" />
      <path
         inkscape:connector-curvature="0"
         id="path96"
         style="fill:#21a4df;fill-opacity:1;fill-rule:nonzero;stroke:none;stroke-width:0.02832822"
         d="m -153.55635,114.02929 c 0,0 2.81886,2.01754 0.57713,5.98549 0,0 -0.94046,-1.77779 -2.33182,-3.24649 l 1.75469,-2.739" />
      <path
         inkscape:connector-curvature="0"
         id="path98"
         style="fill:#21a4df;fill-opacity:1;fill-rule:nonzero;stroke:none;stroke-width:0.02832822"
         d="m -157.77932,114.19436 c 0,0 -2.44877,2.71997 -0.3531,5.79464 0,0 0.52495,-1.89696 2.74089,-3.23691 l -2.38779,-2.55773" />
      <path
         inkscape:connector-curvature="0"
         id="path100"
         style="fill:#ffafac;fill-opacity:1;fill-rule:nonzero;stroke:none;stroke-width:0.02832822"
         d="m -157.79755,111.92418 c 0,0 0.049,1.97933 0,2.86006 -0.0258,0.46378 2.02493,2.02901 2.48651,1.98405 0.52824,-0.0515 1.53302,-1.08227 1.68771,-1.62325 0.15454,-0.54114 0,-2.55097 0,-2.55097 l -4.17422,-0.66989" />
      <path
         inkscape:connector-curvature="0"
         id="path102"
         style="fill:#ff756f;fill-opacity:1;fill-rule:nonzero;stroke:none;stroke-width:0.02832822"
         d="m -157.77932,114.19436 c 2.42757,1.09956 4.22438,0.12703 4.22438,0.12703 v 0 -1.2e-4 c 1.2e-4,-0.0237 3.5e-4,-0.0474 3.5e-4,-0.0713 0,-0.002 0,-0.003 0,-0.005 0,-0.022 -1.1e-4,-0.0441 -1.1e-4,-0.0662 0,-0.002 0,-0.005 -1.2e-4,-0.007 -1.2e-4,-0.0471 -7.9e-4,-0.0948 -0.002,-0.14243 0,-0.002 0,-0.006 -1.3e-4,-0.009 -3.5e-4,-0.0223 -4.4e-4,-0.045 -7.9e-4,-0.0673 0,-0.002 -1.1e-4,-0.002 -1.1e-4,-0.004 -7.9e-4,-0.0484 -0.002,-0.097 -0.004,-0.14543 0,-0.002 0,-0.005 -1.2e-4,-0.007 -0.002,-0.0722 -0.005,-0.14386 -0.007,-0.21413 0,-0.002 -1.1e-4,-0.005 -1.1e-4,-0.007 -0.002,-0.0468 -0.004,-0.0929 -0.006,-0.13819 0,-0.002 -1.2e-4,-0.003 -1.2e-4,-0.005 -0.003,-0.0679 -0.006,-0.13348 -0.009,-0.19652 -1.2e-4,-0.002 -3.6e-4,-0.006 -3.6e-4,-0.008 -0.002,-0.0417 -0.005,-0.0822 -0.006,-0.12106 0,-7.9e-4 -1.2e-4,-0.002 -1.2e-4,-0.002 -7.9e-4,-0.0181 -0.002,-0.0357 -0.003,-0.0531 -1.1e-4,-0.002 -3.5e-4,-0.006 -4.5e-4,-0.008 -0.002,-0.0366 -0.004,-0.0717 -0.006,-0.10502 -1.1e-4,-0.002 -1.1e-4,-0.004 -3.5e-4,-0.006 -7.9e-4,-0.0152 -0.002,-0.0302 -0.002,-0.0446 -1.2e-4,-0.002 -3.6e-4,-0.002 -3.6e-4,-0.004 -7.8e-4,-0.0158 -0.002,-0.031 -0.002,-0.0456 -1.1e-4,-4.5e-4 -1.1e-4,-0.002 -1.1e-4,-0.002 -7.9e-4,-0.0141 -0.002,-0.0277 -0.002,-0.0407 0,-7.9e-4 -1.1e-4,-0.002 -1.1e-4,-0.003 -0.002,-0.0394 -0.005,-0.0737 -0.007,-0.1025 -1.2e-4,-0.002 -4.4e-4,-0.006 -4.4e-4,-0.008 -7.9e-4,-0.0165 -0.002,-0.031 -0.003,-0.0432 -3.6e-4,-0.002 -4.5e-4,-0.006 -4.5e-4,-0.008 -3.6e-4,-0.005 -4.4e-4,-0.009 -7.9e-4,-0.0134 0,-3.6e-4 0,-7.9e-4 0,-7.9e-4 -4.4e-4,-0.005 -7.9e-4,-0.009 -7.9e-4,-0.0128 0,-4.5e-4 0,-7.9e-4 0,-0.002 -4.4e-4,-0.006 -7.9e-4,-0.01 -7.9e-4,-0.01 l -4.17418,-0.6701 c 0,0 0.0324,1.30788 0.0182,2.27034" />
      <path
         inkscape:connector-curvature="0"
         id="path104"
         style="fill:#ffafac;fill-opacity:1;fill-rule:nonzero;stroke:none;stroke-width:0.02832822"
         d="m -160.50306,105.81748 c 0,0 -1.5459,-0.51536 -2.21594,1.0307 -0.6699,1.54589 1.08227,3.29805 3.0921,3.24664 0.51535,0.97898 2.47362,5.05022 7.31773,3.71028 2.67973,-0.77303 3.86498,-3.90098 3.86498,-3.90098 0,0 2.67973,-0.0672 2.57659,-2.48903 -0.10297,-2.42205 -2.21594,-0.92773 -2.21594,-0.92773 l -1.18525,-6.853775 -9.276,-0.92773 -1.95827,7.111625" />
      <path
         inkscape:connector-curvature="0"
         id="path106"
         style="fill:#fc9491;fill-opacity:1;fill-rule:nonzero;stroke:none;stroke-width:0.02832822"
         d="m -156.72392,101.11077 c 0,0 0.84172,-0.0514 2.57659,1.32265 1.73503,1.37437 3.68261,0.28126 4.71315,1.6212 l -0.0579,-2.08482 c 0,0 -5.44546,-2.164385 -7.23189,-0.85903" />
      <path
         inkscape:connector-curvature="0"
         id="path108"
         style="fill:#fc9491;fill-opacity:1;fill-rule:nonzero;stroke:none;stroke-width:0.02832822"
         d="m -159.16312,105.5598 c 0,0 -0.11492,-0.94534 1.27108,-1.30551 2.18152,-0.56693 0.30925,-2.00969 0.86752,-3.04903 0.22481,-0.41851 -0.5927,-1.211025 -0.5927,-1.211025 l -1.67482,4.019665 c 0,0 -0.59254,1.28822 0.12892,1.5459" />
      <path
         inkscape:connector-curvature="0"
         id="path110"
         style="fill:#ffa3a5;fill-opacity:1;fill-rule:nonzero;stroke:none;stroke-width:0.02832822"
         d="m -156.99873,109.47633 c 0,0.55057 -0.44634,0.99707 -0.99706,0.99707 -0.55073,0 -0.99706,-0.4465 -0.99706,-0.99707 0,-0.55072 0.44633,-0.99705 0.99706,-0.99705 0.55072,0 0.99706,0.44633 0.99706,0.99705" />
      <path
         inkscape:connector-curvature="0"
         id="path112"
         style="fill:#332d7a;fill-opacity:1;fill-rule:nonzero;stroke:none;stroke-width:0.02832822"
         d="m -160.12591,107.61004 c -0.005,0.20077 0.23111,0.30987 0.38251,0.17781 0.3487,-0.30468 0.77208,-0.94879 0.58028,-2.22805 -0.30924,-2.06125 2.47347,-0.92757 2.06125,-3.19509 -0.41222,-2.26735 1.33995,-0.92757 3.762,0 2.42206,0.92773 2.9374,-0.0514 3.34962,0.67006 0.41222,0.72146 1.49449,2.62801 1.49449,3.76184 0,1.13368 -0.0369,1.07613 0.30908,0.30924 0.34619,-0.7669 0.61849,-1.65925 0.56692,-2.53022 -0.0516,-0.87097 0.1547,-1.92196 1.0307,-3.45779 0.87601,-1.535825 0.41222,-6.122255 -3.71043,-6.740747 -4.12265,-0.618323 -5.61714,0.979132 -7.3693,2.886002 -1.752,1.9067 -3.29806,0.61832 -4.43173,1.80357 -1.13384,1.185235 -1.364,4.105355 0.40011,6.767945 0,0 0.32134,-0.22325 1.19735,-0.0172 0.21853,0.0935 0.40876,0.48517 0.37715,1.79257" />
      <path
         inkscape:connector-curvature="0"
         id="path114"
         style="fill:#26206a;fill-opacity:1;fill-rule:nonzero;stroke:none;stroke-width:0.02832822"
         d="m -161.96265,105.41155 c 0.60324,-0.0428 1.24248,-0.39006 1.58693,-0.76234 0.44995,-0.48643 0.68578,-1.16654 0.63091,-1.82716 -0.0147,-0.17702 -0.0408,-0.38046 0.0821,-0.5089 0.2179,-0.22812 0.62053,0.0286 0.91201,-0.0921 0.20548,-0.0851 0.2921,-0.35091 0.22922,-0.56425 -0.0632,-0.2135 -0.24117,-0.37526 -0.43564,-0.48343 -0.53013,-0.29478 -1.20302,-0.25013 -1.75217,0.007 -0.54915,0.25751 -0.98888,0.70416 -1.35283,1.18933 -0.17326,0.23079 -0.47306,0.63121 -0.71297,1.0678 0.16492,0.64757 0.43061,1.31511 0.81248,1.97368" />
      <path
         inkscape:connector-curvature="0"
         id="path116"
         style="fill:#ffafac;fill-opacity:1;fill-rule:nonzero;stroke:none;stroke-width:0.02832822"
         d="m -147.98811,137.07981 c 0,0 -0.1885,0.39434 -0.49712,0.47214 -0.74205,0.18775 -1.30441,0.36614 -1.7061,1.0582 -0.32245,0.55547 -0.10454,0.83605 0.5446,0.78969 0,0 -1.20506,0.98714 -1.16811,1.57988 0.0311,0.49929 0.44775,1.30251 0.92222,1.52703 0.59443,0.28139 1.38963,0.008 1.9534,-0.22797 0.73938,-0.31 0.82899,-0.7787 1.0906,-1.48175 0.0948,-0.25486 0.22293,-0.45088 0.24777,-0.72915 0.0327,-0.36692 -0.0357,-0.73454 0.0472,-1.09835 0.12876,-0.56708 0.57195,-0.99733 0.57195,-0.99733 l -2.00638,-0.89239" />
      <path
         inkscape:connector-curvature="0"
         id="path118"
         style="fill:#ffafac;fill-opacity:1;fill-rule:nonzero;stroke:none;stroke-width:0.02832822"
         d="m -163.40839,105.57159 v 0 c 0,0 0.0453,-0.70747 0.54412,-0.70747 0.49884,0 1.45942,-0.15454 2.05213,-0.59255 0.59254,-0.438 0.59254,-1.3915 0.54097,-1.95827 -0.0516,-0.56691 -0.33487,-0.85037 0.46379,-0.56691 0.7988,0.28346 1.57183,0.10298 1.33994,-0.46379 -0.72146,-1.0307 -1.28838,-1.0307 -2.78287,-0.85037 -1.49433,0.18048 -2.83427,2.7313 -2.98881,3.11772 -0.1547,0.38661 -0.47243,0.36994 -0.47243,0.36994 v 0 c 0.41065,0.42479 0.96168,1.13006 1.30316,1.6517" />
      <path
         inkscape:connector-curvature="0"
         id="path120"
         style="fill:#332d7a;fill-opacity:1;fill-rule:nonzero;stroke:none;stroke-width:0.02832822"
         d="m -155.65581,107.47892 c 0.0324,0.47919 -0.16963,0.88292 -0.45121,0.90195 -0.28157,0.019 -0.5361,-0.35389 -0.56848,-0.83293 -0.0324,-0.47919 0.16963,-0.88307 0.45121,-0.9021 0.28156,-0.019 0.5361,0.35389 0.56848,0.83308" />
      <path
         inkscape:connector-curvature="0"
         id="path122"
         style="fill:#332d7a;fill-opacity:1;fill-rule:nonzero;stroke:none;stroke-width:0.02832822"
         d="m -149.706,107.08195 c 0.0324,0.4792 -0.16964,0.88292 -0.45121,0.90195 -0.28157,0.019 -0.5361,-0.3539 -0.56864,-0.83308 -0.0324,-0.4792 0.16963,-0.88292 0.4512,-0.90195 0.28173,-0.019 0.53626,0.35389 0.56865,0.83308" />
      <path
         inkscape:connector-curvature="0"
         id="path124"
         style="fill:#332d7a;fill-opacity:1;fill-rule:nonzero;stroke:none;stroke-width:0.02832822"
         d="m -158.09389,105.98491 c 0,0 1.17234,-0.82444 2.69261,-0.47652 0,0 -0.45513,-0.61408 -1.52451,-0.38235 -1.06922,0.23205 -1.1681,0.85887 -1.1681,0.85887" />
      <path
         inkscape:connector-curvature="0"
         id="path126"
         style="fill:#332d7a;fill-opacity:1;fill-rule:nonzero;stroke:none;stroke-width:0.02832822"
         d="m -152.75581,104.70093 c 0,0 1.19404,-1.53426 2.53996,-0.48092 0,0 -0.44444,-0.8933 -1.47499,-0.67006 -1.0307,0.22341 -1.06497,1.15098 -1.06497,1.15098" />
      <path
         inkscape:connector-curvature="0"
         id="path128"
         style="fill:#933131;fill-opacity:1;fill-rule:nonzero;stroke:none;stroke-width:0.02832822"
         d="m -154.99755,110.64712 c 0,0 0.51473,-0.32198 1.24279,-0.27041 0.72837,0.0514 1.08903,0.47651 1.08903,0.47651 0,0 -0.45153,-0.219 -1.08903,-0.27056 -0.6372,-0.0514 -1.24279,0.0645 -1.24279,0.0645" />
      <path
         inkscape:connector-curvature="0"
         id="path130"
         style="fill:#ff918d;fill-opacity:1;fill-rule:nonzero;stroke:none;stroke-width:0.02832822"
         d="m -152.65284,107.98185 0.086,1.15098 -0.85887,0.25767 1.14217,-0.0516 -0.36931,-1.35708" />
      <path
         inkscape:connector-curvature="0"
         id="path132"
         style="fill:#f15767;fill-opacity:1;fill-rule:nonzero;stroke:none;stroke-width:0.02832822"
         d="m -152.16327,132.29685 -2.77422,-12.87461 0.72146,-1.44293 -1.09501,-1.21102 -0.14165,-0.0258 -1.44307,1.0307 0.82459,1.75217 c 0,0 0.0945,8.03054 0.3006,13.23546 l 2.08703,2.02678 1.52027,-2.49076" />
      <path
         inkscape:connector-curvature="0"
         id="path134"
         style="fill:#3981c9;fill-opacity:1;fill-rule:nonzero;stroke:none;stroke-width:0.02832822"
         d="m -165.27831,103.12061 c 0,0 -0.65291,0.2748 -0.79032,0.72145 -0.1374,0.44665 2.16438,3.19509 2.16438,3.19509 0,0 1.13384,-0.75589 1.13384,-0.8933 0,-0.1374 -2.06141,-2.85141 -2.5079,-3.02324" />
      <path
         inkscape:connector-curvature="0"
         id="path136"
         style="fill:#3981c9;fill-opacity:1;fill-rule:nonzero;stroke:none;stroke-width:0.02832822"
         d="m -149.37192,122.35964 c 0,0 1.59762,8.29684 1.13384,12.57407 l -0.99643,0.33501 c 0,0 0.53248,-6.57048 -0.13741,-12.90908" />
      <path
         inkscape:connector-curvature="0"
         id="path138"
         style="fill:#3981c9;fill-opacity:1;fill-rule:nonzero;stroke:none;stroke-width:0.02832822"
         d="m -148.40568,134.80493 3.9123,1.70922 -0.85887,1.79508 -3.84783,-1.62354 0.7944,-1.88076" />
      <path
         inkscape:connector-curvature="0"
         id="path140"
         style="fill:#cc445e;fill-opacity:1;fill-rule:nonzero;stroke:none;stroke-width:0.02832822"
         d="m -156.07117,119.52536 0.92757,-0.11602 -0.92443,0.3693 z" />
      <path
         inkscape:connector-curvature="0"
         id="path142"
         style="fill:#26206a;fill-opacity:1;fill-rule:nonzero;stroke:none;stroke-width:0.02832822"
         d="m -149.18814,103.58376 c 0.10848,-0.36553 0.24683,-0.36285 0.31443,-0.73797 0.0819,-0.45419 -0.12577,-1.09154 -0.58405,-1.14578 -0.45828,-0.0542 -0.90807,0.11964 -1.35629,0.22969 -0.76721,0.18819 -1.57954,0.19007 -2.34769,0.006 -0.55938,-0.13443 -1.09155,-0.3649 -1.64762,-0.51237 -0.19966,-0.0528 -0.76564,-0.21476 -1.09736,-0.13992 0.66817,0.23928 1.55941,0.69614 2.56685,1.08196 2.42206,0.92772 2.9374,-0.0514 3.34962,0.67004 0.41222,0.72146 1.49449,2.62801 1.49449,3.76185 0,0.22309 -0.001,0.39948 -0.001,0.53405 0.045,-0.10501 0.0783,-0.21506 0.0984,-0.32165 0.13552,-0.71675 0.01,-1.47987 -0.34855,-2.11502 -0.23362,-0.41426 -0.5765,-0.85447 -0.44114,-1.31023" />
      <path
         inkscape:connector-curvature="0"
         id="path144"
         style="fill:#26206a;fill-opacity:1;fill-rule:nonzero;stroke:none;stroke-width:0.02832822"
         d="m -161.41177,98.730685 c 0.50922,-0.12497 1.0414,-0.15265 1.56366,-0.12184 0.63642,0.0376 1.32957,0.13914 1.86583,-0.20563 0.36443,-0.23425 0.58202,-0.63263 0.81532,-0.99785 0.79567,-1.24545 1.94381,-2.25902 3.26803,-2.913503 -1.64636,0.472583 -2.65615,1.559253 -3.76986,2.771233 -1.62734,1.77087 -3.07669,0.78592 -4.18333,1.5863 0.14464,-0.034 0.28974,-0.0818 0.44035,-0.11871" />
      <path
         inkscape:connector-curvature="0"
         id="path146"
         style="fill:#26206a;fill-opacity:1;fill-rule:nonzero;stroke:none;stroke-width:0.02832822"
         d="m -157.10187,102.36471 c -0.1253,-0.68923 -0.0503,-1.04469 0.18237,-1.18021 -0.0196,1.2e-4 -0.0395,0.002 -0.0593,0.004 -0.44791,0.056 -0.6287,0.61047 -0.63499,1.06168 -0.006,0.4512 0.0373,0.96828 -0.28535,1.28381 -0.3965,0.38801 -1.10349,0.22026 -1.54275,0.5589 -0.30327,0.23362 -0.39901,0.65166 -0.39367,1.03432 0.006,0.38266 0.0902,0.76391 0.0591,1.14531 -0.0239,0.29227 -0.13804,0.59821 -0.35028,0.78797 0.006,0.16224 0.006,0.34461 7.9e-4,0.54962 -0.005,0.20076 0.23111,0.30987 0.3825,0.17781 0.34871,-0.30468 0.77209,-0.9488 0.58029,-2.22805 -0.30924,-2.06125 2.47346,-0.92757 2.06124,-3.19509" />
      <path
         inkscape:connector-curvature="0"
         id="path148"
         style="fill:#ffffff;fill-opacity:1;fill-rule:nonzero;stroke:none;stroke-width:0.02832822"
         d="m -176.32825,101.68806 c 0,-0.41898 0.11221,-0.73593 0.33673,-0.95036 0.22459,-0.2146 0.55131,-0.32182 0.98046,-0.32182 0.4141,0 0.73454,0.10974 0.96171,0.32921 0.22691,0.21962 0.34046,0.53405 0.34046,0.94297 0,0.39414 -0.11485,0.7048 -0.34422,0.93182 -0.22948,0.22701 -0.54896,0.34052 -0.95795,0.34052 -0.41914,0 -0.74352,-0.11115 -0.9729,-0.33298 -0.22962,-0.22199 -0.34429,-0.53516 -0.34429,-0.93936 z m 0.23952,-2.559455 v -0.55387 c 0,-0.47903 0.10213,-0.89549 0.30681,-1.24986 0.20451,-0.3542 0.57876,-0.73074 1.12263,-1.13006 0.52383,-0.37417 0.86928,-0.67839 1.03645,-0.91294 0.16708,-0.23457 0.25074,-0.496489 0.25074,-0.78593 0,-0.324177 -0.1197,-0.571158 -0.3592,-0.740793 -0.2395,-0.169635 -0.57384,-0.254532 -1.00286,-0.254532 -0.74838,0 -1.60157,0.244467 -2.55954,0.733408 l -0.81573,-1.638965 c 1.11254,-0.623667 2.29252,-0.93543 3.53992,-0.93543 1.02773,0 1.84481,0.246831 2.45095,0.740801 0.60627,0.49397 0.90939,1.152538 0.90939,1.975879 0,0.548832 -0.12485,1.022832 -0.37425,1.421852 -0.24958,0.39933 -0.72348,0.84833 -1.42192,1.34717 -0.47902,0.35421 -0.78209,0.62367 -0.90934,0.80824 -0.12725,0.18473 -0.19087,0.42668 -0.19087,0.72602 v 0.44901 h -1.98318" />
      <path
         inkscape:connector-curvature="0"
         id="path150"
         style="fill:#ffffff;fill-opacity:1;fill-rule:nonzero;stroke:none;stroke-width:0.02832822"
         d="m -169.72275,81.240054 c 0,-0.29682 0.0795,-0.521169 0.2386,-0.673198 0.15905,-0.151867 0.39044,-0.227957 0.69443,-0.227957 0.29338,0 0.52035,0.07766 0.68123,0.233305 0.16083,0.155488 0.24116,0.378102 0.24116,0.66785 0,0.279212 -0.0813,0.499314 -0.24384,0.659988 -0.16256,0.16083 -0.3888,0.241323 -0.67855,0.241323 -0.29692,0 -0.52667,-0.07876 -0.68917,-0.235975 -0.1626,-0.157216 -0.24386,-0.379047 -0.24386,-0.665336 z m 0.16962,-1.813002 v -0.392251 c 0,-0.339429 0.0724,-0.634364 0.2174,-0.885438 0.14487,-0.250757 0.40993,-0.51771 0.7951,-0.800381 0.37114,-0.265063 0.61592,-0.480605 0.73431,-0.646783 0.11838,-0.166018 0.17749,-0.351533 0.17749,-0.556696 0,-0.229692 -0.0847,-0.404516 -0.25437,-0.524787 -0.16964,-0.120112 -0.40644,-0.180167 -0.71036,-0.180167 -0.53018,0 -1.13441,0.17325 -1.81301,0.519595 l -0.57783,-1.161031 c 0.78805,-0.441776 1.62386,-0.662662 2.50746,-0.662662 0.728,0 1.30671,0.17498 1.73622,0.524783 0.42935,0.349803 0.64395,0.81642 0.64395,1.399529 0,0.388793 -0.0884,0.724446 -0.26507,1.007278 -0.1767,0.282671 -0.51236,0.600873 -1.00711,0.954134 -0.33927,0.251074 -0.55403,0.441932 -0.64412,0.572579 -0.0901,0.130802 -0.1352,0.302167 -0.1352,0.514251 v 0.318047 h -1.40486" />
      <path
         inkscape:connector-curvature="0"
         id="path152"
         style="fill:#ffffff;fill-opacity:1;fill-rule:nonzero;stroke:none;stroke-width:0.02832822"
         d="m -134.26937,87.79979 c 0,-0.654382 0.17518,-1.148996 0.52578,-1.484065 0.3506,-0.334839 0.86062,-0.502434 1.53076,-0.502434 0.64645,0 1.14682,0.171505 1.50144,0.514169 0.35439,0.342889 0.53165,0.833593 0.53165,1.47233 0,0.615389 -0.17921,1.100343 -0.5374,1.454621 -0.35854,0.35451 -0.85718,0.531764 -1.49569,0.531764 -0.65438,0 -1.16084,-0.17346 -1.51903,-0.520034 -0.35854,-0.346458 -0.53751,-0.835432 -0.53751,-1.466351 z m 0.37394,-3.996233 v -0.864652 c 0,-0.747897 0.15943,-1.398253 0.47909,-1.951414 0.3192,-0.553046 0.90353,-1.141059 1.75265,-1.764384 0.81795,-0.584332 1.3573,-1.059275 1.6183,-1.425519 0.261,-0.366128 0.39155,-0.775044 0.39155,-1.226983 0,-0.506228 -0.18703,-0.891909 -0.56087,-1.1567 -0.37395,-0.264789 -0.89593,-0.397299 -1.56585,-0.397299 -1.16843,0 -2.50055,0.381654 -3.99623,1.145083 l -1.27357,-2.558985 c 1.7369,-0.973694 3.57938,-1.4606 5.52688,-1.4606 1.60462,0 2.88037,0.385682 3.82669,1.156818 0.94655,0.771248 1.41977,1.799466 1.41977,3.084767 0,0.85706 -0.19474,1.597023 -0.58422,2.220116 -0.38971,0.623329 -1.12956,1.324412 -2.22011,2.103253 -0.74791,0.553158 -1.22112,0.973809 -1.41977,1.261949 -0.19854,0.288255 -0.29781,0.66612 -0.29781,1.133468 v 0.701082 h -3.0965" />
      <path
         inkscape:connector-curvature="0"
         id="path154"
         style="fill:#ffffff;fill-opacity:1;fill-rule:nonzero;stroke:none;stroke-width:0.02832822"
         d="m -154.47412,87.963809 c 0,-0.384857 0.10307,-0.675724 0.30931,-0.872785 0.20613,-0.197066 0.50616,-0.295544 0.90029,-0.295544 0.38027,0 0.67473,0.100772 0.88315,0.302321 0.20853,0.201748 0.3128,0.490421 0.3128,0.866008 0,0.362028 -0.10547,0.647308 -0.31618,0.855738 -0.21082,0.208425 -0.50408,0.31269 -0.87977,0.31269 -0.38486,0 -0.6828,-0.101972 -0.89342,-0.305814 -0.21082,-0.203842 -0.31618,-0.491411 -0.31618,-0.862614 z m 0.2199,-2.35052 v -0.508556 c 0,-0.439883 0.0939,-0.822446 0.28179,-1.1478 0.18789,-0.325348 0.53148,-0.671232 1.03097,-1.03785 0.48115,-0.343692 0.79833,-0.623089 0.95193,-0.838493 0.15351,-0.215309 0.23025,-0.455931 0.23025,-0.721674 0,-0.29784 -0.10994,-0.524608 -0.32993,-0.680504 -0.21999,-0.155698 -0.527,-0.233646 -0.92092,-0.233646 -0.68739,0 -1.47087,0.224576 -2.35063,0.673626 l -0.74908,-1.505244 c 1.02171,-0.572752 2.10531,-0.859128 3.25081,-0.859128 0.94396,0 1.69424,0.226868 2.25094,0.680506 0.55671,0.453534 0.83511,1.058384 0.83511,1.814445 0,0.504074 -0.11463,0.93937 -0.34369,1.305887 -0.22916,0.366516 -0.66436,0.778987 -1.30589,1.237107 -0.43988,0.325349 -0.71818,0.572754 -0.835,0.742304 -0.11683,0.169555 -0.17524,0.391738 -0.17524,0.666653 v 0.412367 h -1.82142" />
      <path
         inkscape:connector-curvature="0"
         id="path156"
         style="fill:#ffffff;fill-opacity:1;fill-rule:nonzero;stroke:none;stroke-width:0.02832822"
         d="m -119.02408,96.786575 c 0,-0.44603 0.11949,-0.78309 0.35845,-1.01137 0.23881,-0.22827 0.58657,-0.34241 1.04328,-0.34241 0.44067,0 0.78183,0.11681 1.02347,0.35043 0.24149,0.23362 0.36238,0.56817 0.36238,1.00335 0,0.4196 -0.12216,0.75007 -0.36631,0.99155 -0.24431,0.24164 -0.58421,0.36239 -1.01954,0.36239 -0.44586,0 -0.79126,-0.11823 -1.03526,-0.35438 -0.24431,-0.23613 -0.36647,-0.56943 -0.36647,-0.99956 z m 0.25501,-2.723751 v -0.589239 c 0,-0.509852 0.10863,-0.953038 0.32653,-1.33004 0.21743,-0.377001 0.61581,-0.777901 1.19452,-1.202699 0.55749,-0.398227 0.92506,-0.722089 1.10318,-0.971584 0.17781,-0.249503 0.26663,-0.52824 0.26663,-0.836228 0,-0.345087 -0.12734,-0.60795 -0.38218,-0.788431 -0.255,-0.180489 -0.61063,-0.270887 -1.06734,-0.270887 -0.79629,0 -1.70421,0.260191 -2.72375,0.780573 l -0.86798,-1.744141 c 1.18383,-0.663763 2.4395,-0.995648 3.76703,-0.995648 1.09374,0 1.96314,0.26287 2.60835,0.788439 0.64505,0.525726 0.96766,1.226431 0.96766,2.102597 0,0.58421 -0.13284,1.088552 -0.39822,1.513193 -0.26554,0.424797 -0.77005,0.902727 -1.5132,1.43364 -0.50985,0.377001 -0.83229,0.663762 -0.96782,0.860125 -0.1352,0.196521 -0.20296,0.453882 -0.20296,0.77255 v 0.47778 h -2.11045" />
    </g>
    <g
       id="g1320"
       transform="matrix(0.96815295,0,0,0.96815295,-1.9475303,10.568511)"
       style="stroke-width:1.03289461">
      <g
         id="g1375"
         transform="matrix(0.68693253,0,0,0.68693253,-149.69906,53.682809)"
         style="stroke-width:1.50363326">
        <g
           id="text1290"
           style="font-style:normal;font-variant:normal;font-weight:600;font-stretch:normal;font-size:18.25938225px;line-height:30.12797928px;font-family:'Inter UI';-inkscape-font-specification:'Inter UI Semi-Bold';text-align:center;text-decoration:none;text-decoration-line:none;text-decoration-color:#000000;letter-spacing:0px;word-spacing:0px;text-anchor:middle;opacity:1;vector-effect:none;fill:#ffffff;fill-opacity:1;stroke:none;stroke-width:0.75181663;stroke-linecap:round;stroke-linejoin:round;stroke-miterlimit:4;stroke-dasharray:none;stroke-dashoffset:0;stroke-opacity:1;paint-order:fill markers stroke"
           aria-label="LibreOffice">
          <path
             id="path1334"
             style="font-weight:bold;stroke-width:0.75181663"
             d="m 56.826162,118.76846 h 8.500728 v -2.31484 h -5.693089 v -10.96471 h -2.807639 z"
             inkscape:connector-curvature="0" />
          <path
             id="path1336"
             style="font-weight:bold;stroke-width:0.75181663"
             d="m 67.13602,118.76846 h 2.76225 v -9.95966 h -2.76225 z m 1.387609,-11.13978 c 0.804036,0 1.49784,-0.60951 1.49784,-1.40057 0,-0.78459 -0.693804,-1.3941 -1.49784,-1.3941 -0.797551,0 -1.491355,0.60951 -1.491355,1.3941 0,0.79106 0.693804,1.40057 1.491355,1.40057 z"
             inkscape:connector-curvature="0" />
          <path
             id="path1338"
             style="font-weight:bold;stroke-width:0.75181663"
             d="m 72.10263,118.76846 h 2.723345 v -1.5951 h 0.123199 c 0.382566,0.82997 1.219022,1.75721 2.827092,1.75721 2.269455,0 4.039629,-1.79611 4.039629,-5.12897 0,-3.42363 -1.847984,-5.12248 -4.033145,-5.12248 -1.666428,0 -2.463979,0.99207 -2.833576,1.80259 h -0.08429 v -4.9928 h -2.76225 z m 2.703893,-4.97983 c 0,-1.77666 0.752162,-2.91138 2.094382,-2.91138 1.368157,0 2.094382,1.1866 2.094382,2.91138 0,1.73776 -0.739193,2.94381 -2.094382,2.94381 -1.329252,0 -2.094382,-1.16715 -2.094382,-2.94381 z"
             inkscape:connector-curvature="0" />
          <path
             id="path1340"
             style="font-weight:bold;stroke-width:0.75181663"
             d="m 83.650708,118.76846 h 2.76225 v -5.63473 c 0.0065,-1.21902 0.888329,-2.05548 2.003604,-2.05548 0.376081,0 0.680836,0.10375 0.940203,0.23343 l 0.829972,-2.28242 c -0.363113,-0.22046 -0.829972,-0.36311 -1.361673,-0.36311 -1.121759,0 -2.029541,0.64841 -2.392654,1.8804 h -0.103746 v -1.73775 h -2.677956 z"
             inkscape:connector-curvature="0" />
          <path
             id="path1342"
             style="font-weight:bold;stroke-width:0.75181663"
             d="m 95.549053,118.96299 c 2.463979,0 4.123923,-1.19957 4.512967,-3.04756 l -2.554752,-0.16858 c -0.278819,0.75864 -0.992076,1.15418 -1.912826,1.15418 -1.381125,0 -2.256486,-0.91427 -2.256486,-2.39914 v -0.006 h 6.782424 v -0.75864 c 0,-3.38473 -2.048991,-5.05764 -4.681558,-5.05764 -2.930838,0 -4.830696,2.08141 -4.830696,5.1549 0,3.15778 1.873921,5.12897 4.940927,5.12897 z m -2.211097,-6.1794 c 0.05836,-1.13473 0.92075,-2.04251 2.146255,-2.04251 1.199569,0 2.029541,0.85591 2.036025,2.04251 z"
             inkscape:connector-curvature="0" />
          <path
             id="path1344"
             style="font-weight:normal;stroke-width:0.75181663"
             d="m 113.63336,112.12869 c 0,-4.20174 -2.46398,-6.82133 -5.86167,-6.82133 -3.3977,0 -5.86168,2.61959 -5.86168,6.82133 0,4.20173 2.46398,6.82133 5.86168,6.82133 3.39769,0 5.86167,-2.6196 5.86167,-6.82133 z m -1.55619,0 c 0,3.44957 -1.89338,5.31701 -4.30548,5.31701 -2.41211,0 -4.30548,-1.86744 -4.30548,-5.31701 0,-3.44957 1.89337,-5.31701 4.30548,-5.31701 2.4121,0 4.30548,1.86744 4.30548,5.31701 z"
             inkscape:connector-curvature="0" />
          <path
             id="path1346"
             style="font-weight:normal;stroke-width:0.75181663"
             d="m 120.55824,108.8088 h -2.23055 v -1.01153 c 0,-0.98559 0.41498,-1.50432 1.42651,-1.50432 0.44092,0 0.70029,0.10374 0.85591,0.15562 l 0.44092,-1.32277 c -0.23343,-0.10375 -0.70029,-0.25937 -1.45245,-0.25937 -1.42651,0 -2.80115,0.85591 -2.80115,2.56773 v 1.37464 h -1.60807 v 1.29683 h 1.60807 v 8.66283 h 1.53026 v -8.66283 h 2.23055 z"
             inkscape:connector-curvature="0" />
          <path
             id="path1348"
             style="font-weight:normal;stroke-width:0.75181663"
             d="m 127.14639,108.8088 h -2.23055 v -1.01153 c 0,-0.98559 0.41499,-1.50432 1.42652,-1.50432 0.44092,0 0.70029,0.10374 0.85591,0.15562 l 0.44092,-1.32277 c -0.23343,-0.10375 -0.70029,-0.25937 -1.45245,-0.25937 -1.42652,0 -2.80116,0.85591 -2.80116,2.56773 v 1.37464 h -1.60807 v 1.29683 h 1.60807 v 8.66283 h 1.53026 v -8.66283 h 2.23055 z"
             inkscape:connector-curvature="0" />
          <path
             id="path1350"
             style="font-weight:normal;stroke-width:0.75181663"
             d="m 129.29938,118.76846 h 1.53026 v -9.95966 h -1.53026 z m 0.7781,-11.59367 c 0.59654,0 1.08934,-0.46686 1.08934,-1.03746 0,-0.57061 -0.4928,-1.03747 -1.08934,-1.03747 -0.59654,0 -1.08934,0.46686 -1.08934,1.03747 0,0.5706 0.4928,1.03746 1.08934,1.03746 z"
             inkscape:connector-curvature="0" />
          <path
             id="path1352"
             style="font-weight:normal;stroke-width:0.75181663"
             d="m 137.67686,118.97596 c 2.20462,0 3.65707,-1.34871 3.91643,-3.1124 h -1.53026 c -0.2853,1.08934 -1.19308,1.73776 -2.38617,1.73776 -1.81556,0 -2.98271,-1.50433 -2.98271,-3.81269 0,-2.25648 1.19309,-3.73487 2.98271,-3.73487 1.34871,0 2.15274,0.82997 2.38617,1.73775 h 1.53026 c -0.25936,-1.86744 -1.8415,-3.11239 -3.94236,-3.11239 -2.69741,0 -4.48704,2.1268 -4.48704,5.16138 0,2.98272 1.71182,5.13546 4.51297,5.13546 z"
             inkscape:connector-curvature="0" />
          <path
             id="path1354"
             style="font-weight:normal;stroke-width:0.75181663"
             d="m 147.99944,118.97596 c 2.02306,0 3.50144,-1.01153 3.9683,-2.51586 l -1.47838,-0.41498 c -0.38905,1.03746 -1.29035,1.5562 -2.48992,1.5562 -1.79611,0 -3.03459,-1.16067 -3.10591,-3.29396 h 7.22983 v -0.64841 c 0,-3.70894 -2.20461,-4.97983 -4.27954,-4.97983 -2.69741,0 -4.48704,2.1268 -4.48704,5.18732 0,3.06052 1.76369,5.10952 4.64266,5.10952 z m -3.10591,-5.99136 c 0.10375,-1.54972 1.19957,-2.93084 2.95029,-2.93084 1.65994,0 2.72334,1.24496 2.72334,2.93084 z"
             inkscape:connector-curvature="0" />
        </g>
        <g
           id="text1298"
           style="font-style:normal;font-variant:normal;font-weight:600;font-stretch:normal;font-size:18.25938225px;line-height:30.12797928px;font-family:'Inter UI';-inkscape-font-specification:'Inter UI Semi-Bold';text-align:center;text-decoration:none;text-decoration-line:none;text-decoration-color:#000000;letter-spacing:0px;word-spacing:0px;text-anchor:middle;opacity:1;vector-effect:none;fill:#ffffff;fill-opacity:1;stroke:none;stroke-width:0.75181663;stroke-linecap:round;stroke-linejoin:round;stroke-miterlimit:4;stroke-dasharray:none;stroke-dashoffset:0;stroke-opacity:1;paint-order:fill markers stroke"
           aria-label=".">
          <path
             id="path1331"
             style="font-weight:normal;stroke-width:0.75181663"
             d="m 156.65556,118.93791 c 0.64841,0 1.16715,-0.51874 1.16715,-1.16715 0,-0.62248 -0.51874,-1.14121 -1.16715,-1.14121 -0.62248,0 -1.16715,0.49279 -1.16715,1.14121 0,0.64841 0.51873,1.16715 1.16715,1.16715 z"
             inkscape:connector-curvature="0" />
        </g>
        <path
           id="rect1304"
           d="m 161.18773,104.41973 h 14.55622 v 14.55622 h -14.55622 z"
           style="opacity:1;vector-effect:none;fill:#ec7265;fill-opacity:1;stroke:none;stroke-width:0.75181663;stroke-linecap:round;stroke-linejoin:round;stroke-miterlimit:4;stroke-dasharray:none;stroke-dashoffset:0;stroke-opacity:1;paint-order:fill markers stroke"
           inkscape:connector-curvature="0" />
        <g
           id="text1302"
           style="font-style:normal;font-variant:normal;font-weight:600;font-stretch:normal;font-size:11.88142204px;line-height:19.60434532px;font-family:'Inter UI';-inkscape-font-specification:'Inter UI Semi-Bold';text-align:center;text-decoration:none;text-decoration-line:none;text-decoration-color:#000000;letter-spacing:0px;word-spacing:0px;text-anchor:middle;opacity:1;vector-effect:none;fill:#ffffff;fill-opacity:1;stroke:none;stroke-width:0.75181663;stroke-linecap:round;stroke-linejoin:round;stroke-miterlimit:4;stroke-dasharray:none;stroke-dashoffset:0;stroke-opacity:1;paint-order:fill markers stroke"
           aria-label="ID">
          <path
             id="path1325"
             style="font-weight:bold;stroke-width:0.75181663"
             d="m 164.98069,107.37732 h -1.82694 v 8.64104 h 1.82694 z"
             inkscape:connector-curvature="0" />
          <path
             id="path1327"
             style="font-weight:bold;stroke-width:0.75181663"
             d="m 169.55024,116.01836 c 2.63282,0 4.22769,-1.62864 4.22769,-4.32896 0,-2.69188 -1.59487,-4.31208 -4.20237,-4.31208 h -3.0885 v 8.64104 z m -1.23624,-1.56535 v -5.51034 h 1.16451 c 1.6202,0 2.47671,0.82697 2.47671,2.74673 0,1.9282 -0.85651,2.76361 -2.48093,2.76361 z"
             inkscape:connector-curvature="0" />
        </g>
      </g>
    </g>
    <g
       aria-label="Jaminan Kualitas"
       style="font-style:normal;font-variant:normal;font-weight:600;font-stretch:normal;font-size:3.76419878px;line-height:6.21092796px;font-family:'Inter UI';-inkscape-font-specification:'Inter UI Semi-Bold';text-align:center;text-decoration:none;text-decoration-line:none;text-decoration-color:#000000;letter-spacing:0px;word-spacing:0px;text-anchor:middle;opacity:1;vector-effect:none;fill:#ffffff;fill-opacity:1;stroke:none;stroke-width:0.5;stroke-linecap:round;stroke-linejoin:round;stroke-miterlimit:4;stroke-dasharray:none;stroke-dashoffset:0;stroke-opacity:1;paint-order:fill markers stroke"
       id="text1560">
      <path
         d="m -107.84608,129.44709 c -0.001,0.28873 -0.13501,0.44245 -0.37294,0.44245 -0.2219,0 -0.37027,-0.13501 -0.37428,-0.3569 h -0.49325 c 0,0.50528 0.36893,0.7646 0.84881,0.7646 0.52801,0 0.88224,-0.32081 0.88357,-0.85015 v -1.92488 h -0.49191 z"
         style="fill:#ffffff;fill-opacity:1;stroke-width:0.5"
         id="path1562" />
      <path
         d="m -106.24199,130.30125 c 0.32215,0 0.51464,-0.15105 0.60286,-0.32349 h 0.016 v 0.28205 h 0.46518 v -1.37415 c 0,-0.5427 -0.44512,-0.70578 -0.82743,-0.70578 -0.44111,0 -0.76995,0.19249 -0.87688,0.56677 l 0.45181,0.0642 c 0.0481,-0.14036 0.18446,-0.26066 0.42106,-0.26066 0.22725,0 0.34621,0.11629 0.34755,0.31947 0.001,0.13501 -0.13634,0.14972 -0.47186,0.18581 -0.012,0.001 -0.0241,0.003 -0.0361,0.004 -0.39834,0.0428 -0.77931,0.16174 -0.77931,0.62425 0,0.40368 0.29542,0.61756 0.68707,0.61756 z m 0.12566,-0.35557 c -0.20185,0 -0.34621,-0.0922 -0.34621,-0.27001 0,-0.18581 0.16174,-0.26334 0.37829,-0.29408 0.12699,-0.0174 0.38096,-0.0495 0.44379,-0.10026 v 0.24195 c 0,0.22858 -0.18447,0.4224 -0.47587,0.4224 z"
         style="fill:#ffffff;fill-opacity:1;stroke-width:0.5"
         id="path1564" />
      <path
         d="m -104.66996,130.25981 h 0.48389 v -1.24849 c 0,-0.25264 0.16843,-0.42374 0.37695,-0.42374 0.20452,0 0.34488,0.13768 0.34488,0.34888 v 1.32335 h 0.47453 v -1.28057 c 0,-0.23126 0.13768,-0.39166 0.37161,-0.39166 0.19516,0 0.35022,0.11495 0.35022,0.36893 v 1.3033 h 0.48523 v -1.37816 c 0,-0.45849 -0.26467,-0.70177 -0.64163,-0.70177 -0.29808,0 -0.52533,0.14704 -0.61622,0.37562 h -0.0214 c -0.0789,-0.23259 -0.27804,-0.37562 -0.55474,-0.37562 -0.27536,0 -0.48122,0.14169 -0.56677,0.37562 h -0.0241 v -0.34889 h -0.4625 z"
         style="fill:#ffffff;fill-opacity:1;stroke-width:0.5"
         id="path1566" />
      <path
         d="m -101.29071,130.25981 h 0.48389 v -2.0532 h -0.48389 z m 0.24328,-2.32856 c 0.14972,0 0.27938,-0.11496 0.27938,-0.262 0,-0.14837 -0.12966,-0.26333 -0.27938,-0.26333 -0.15104,0 -0.28071,0.11496 -0.28071,0.26333 0,0.14704 0.12967,0.262 0.28071,0.262 z"
         style="fill:#ffffff;fill-opacity:1;stroke-width:0.5"
         id="path1568" />
      <path
         d="m -99.825675,129.05676 c 0,-0.29675 0.179121,-0.46785 0.434434,-0.46785 0.249966,0 0.399679,0.16442 0.399679,0.43845 v 1.23245 h 0.483892 v -1.30731 c 0.0013,-0.49191 -0.279375,-0.77262 -0.703114,-0.77262 -0.307446,0 -0.518647,0.14704 -0.612217,0.37562 h -0.02406 v -0.34889 h -0.462508 v 2.0532 h 0.483895 z"
         style="fill:#ffffff;fill-opacity:1;stroke-width:0.5"
         id="path1570" />
      <path
         d="m -97.42355,130.30125 c 0.322149,0 0.514636,-0.15105 0.60286,-0.32349 h 0.01604 v 0.28205 h 0.465178 v -1.37415 c 0,-0.5427 -0.445127,-0.70578 -0.827428,-0.70578 -0.441117,0 -0.76995,0.19249 -0.876888,0.56677 l 0.451811,0.0642 c 0.04812,-0.14036 0.184467,-0.26066 0.421067,-0.26066 0.227242,0 0.34621,0.11629 0.347546,0.31947 0.0013,0.13501 -0.136345,0.14972 -0.471861,0.18581 -0.01203,0.001 -0.02406,0.003 -0.03609,0.004 -0.398342,0.0428 -0.779306,0.16174 -0.779306,0.62425 0,0.40368 0.295414,0.61756 0.687073,0.61756 z m 0.125651,-0.35557 c -0.201844,0 -0.34621,-0.0922 -0.34621,-0.27001 0,-0.18581 0.161743,-0.26334 0.378292,-0.29408 0.126988,-0.0174 0.380964,-0.0495 0.44379,-0.10026 v 0.24195 c 0,0.22858 -0.184467,0.4224 -0.475872,0.4224 z"
         style="fill:#ffffff;fill-opacity:1;stroke-width:0.5"
         id="path1572" />
      <path
         d="m -95.367635,129.05676 c 0,-0.29675 0.17912,-0.46785 0.434433,-0.46785 0.249966,0 0.399679,0.16442 0.399679,0.43845 v 1.23245 h 0.483892 v -1.30731 c 0.0013,-0.49191 -0.279374,-0.77262 -0.703114,-0.77262 -0.307445,0 -0.518647,0.14704 -0.612217,0.37562 h -0.02406 v -0.34889 h -0.462504 v 2.0532 h 0.483892 z"
         style="fill:#ffffff;fill-opacity:1;stroke-width:0.5"
         id="path1574" />
      <path
         d="m -92.600567,130.25981 h 0.495923 v -0.8154 l 0.303435,-0.35824 0.816735,1.17364 h 0.596176 l -1.068038,-1.50915 1.058681,-1.22845 h -0.605533 l -1.068038,1.25785 h -0.03342 v -1.25785 h -0.495923 z"
         style="fill:#ffffff;fill-opacity:1;stroke-width:0.5"
         id="path1576" />
      <path
         d="m -88.893839,129.39629 c 0,0.31279 -0.223232,0.46785 -0.437107,0.46785 -0.232589,0 -0.387648,-0.16441 -0.387648,-0.42507 v -1.23246 h -0.483892 v 1.30731 c 0,0.49325 0.280711,0.77263 0.684399,0.77263 0.307446,0 0.523994,-0.16175 0.617564,-0.39166 h 0.02139 v 0.36492 h 0.469188 v -2.0532 h -0.483892 z"
         style="fill:#ffffff;fill-opacity:1;stroke-width:0.5"
         id="path1578" />
      <path
         d="m -87.32187,130.30125 c 0.32215,0 0.514637,-0.15105 0.60286,-0.32349 h 0.01604 v 0.28205 h 0.465178 v -1.37415 c 0,-0.5427 -0.445127,-0.70578 -0.827429,-0.70578 -0.441117,0 -0.769949,0.19249 -0.876887,0.56677 l 0.451811,0.0642 c 0.04812,-0.14036 0.184467,-0.26066 0.421066,-0.26066 0.227242,0 0.34621,0.11629 0.347547,0.31947 0.0013,0.13501 -0.136345,0.14972 -0.471862,0.18581 -0.01203,0.001 -0.02406,0.003 -0.03609,0.004 -0.398342,0.0428 -0.779307,0.16174 -0.779307,0.62425 0,0.40368 0.295415,0.61756 0.687073,0.61756 z m 0.125652,-0.35557 c -0.201844,0 -0.34621,-0.0922 -0.34621,-0.27001 0,-0.18581 0.161743,-0.26334 0.378291,-0.29408 0.126988,-0.0174 0.380965,-0.0495 0.443791,-0.10026 v 0.24195 c 0,0.22858 -0.184467,0.4224 -0.475872,0.4224 z"
         style="fill:#ffffff;fill-opacity:1;stroke-width:0.5"
         id="path1580" />
      <path
         d="m -85.265956,127.52221 h -0.483892 v 2.7376 h 0.483892 z"
         style="fill:#ffffff;fill-opacity:1;stroke-width:0.5"
         id="path1582" />
      <path
         d="m -84.768706,130.25981 h 0.483892 v -2.0532 h -0.483892 z m 0.243283,-2.32856 c 0.149713,0 0.279374,-0.11496 0.279374,-0.262 0,-0.14837 -0.129661,-0.26333 -0.279374,-0.26333 -0.151049,0 -0.280711,0.11496 -0.280711,0.26333 0,0.14704 0.129662,0.262 0.280711,0.262 z"
         style="fill:#ffffff;fill-opacity:1;stroke-width:0.5"
         id="path1584" />
      <path
         d="m -82.762303,128.20661 h -0.405025 v -0.49191 h -0.483892 v 0.49191 h -0.291405 v 0.37428 h 0.291405 v 1.13755 c -0.0027,0.38765 0.278037,0.57746 0.641625,0.56543 0.137682,-0.003 0.232589,-0.0294 0.284721,-0.0481 l -0.08154,-0.37695 c -0.02674,0.005 -0.08154,0.0187 -0.141692,0.0187 -0.121642,0 -0.220559,-0.0441 -0.219222,-0.23794 v -1.05868 h 0.405025 z"
         style="fill:#ffffff;fill-opacity:1;stroke-width:0.5"
         id="path1586" />
      <path
         d="m -81.753111,130.30125 c 0.322149,0 0.514636,-0.15105 0.602859,-0.32349 h 0.01604 v 0.28205 h 0.465178 v -1.37415 c 0,-0.5427 -0.445127,-0.70578 -0.827429,-0.70578 -0.441117,0 -0.769949,0.19249 -0.876887,0.56677 l 0.451811,0.0642 c 0.04812,-0.14036 0.184467,-0.26066 0.421066,-0.26066 0.227242,0 0.34621,0.11629 0.347547,0.31947 0.0013,0.13501 -0.136345,0.14972 -0.471862,0.18581 -0.01203,0.001 -0.02406,0.003 -0.03609,0.004 -0.398342,0.0428 -0.779307,0.16174 -0.779307,0.62425 0,0.40368 0.295415,0.61756 0.687074,0.61756 z m 0.125651,-0.35557 c -0.201844,0 -0.34621,-0.0922 -0.34621,-0.27001 0,-0.18581 0.161743,-0.26334 0.378291,-0.29408 0.126989,-0.0174 0.380965,-0.0495 0.443791,-0.10026 v 0.24195 c 0,0.22858 -0.184467,0.4224 -0.475872,0.4224 z"
         style="fill:#ffffff;fill-opacity:1;stroke-width:0.5"
         id="path1588" />
      <path
         d="m -78.558312,128.74932 c -0.06684,-0.34755 -0.344873,-0.56944 -0.826092,-0.56944 -0.494585,0 -0.831438,0.24328 -0.830102,0.62291 -0.0013,0.29942 0.183131,0.49726 0.577463,0.5788 l 0.35022,0.0735 c 0.188477,0.0414 0.2767,0.11763 0.2767,0.23392 0,0.14036 -0.152385,0.24596 -0.382301,0.24596 -0.221895,0 -0.366261,-0.0962 -0.407699,-0.28071 l -0.471862,0.0454 c 0.06015,0.37695 0.376955,0.60018 0.880898,0.60018 0.5133,0 0.87555,-0.266 0.876887,-0.65499 -0.0013,-0.29274 -0.189814,-0.47186 -0.577462,-0.55607 l -0.350221,-0.0749 c -0.208528,-0.0468 -0.291404,-0.11897 -0.290067,-0.23794 -0.0013,-0.13901 0.152385,-0.23526 0.35423,-0.23526 0.223232,0 0.340863,0.12164 0.378291,0.25665 z"
         style="fill:#ffffff;fill-opacity:1;stroke-width:0.5"
         id="path1590" />
    </g>
  </g>
</svg>
