<svg xmlns="http://www.w3.org/2000/svg" width="21.005" height="21"><path d="M10.505 5.49a5.002 5.002 0 0 0-5.01 5.01 5.002 5.002 0 0 0 5.01 5.01 5.002 5.002 0 0 0 5.01-5.01 5.002 5.002 0 0 0-5.01-5.01zm0 8.267A3.263 3.263 0 0 1 7.248 10.5a3.26 3.26 0 0 1 3.257-3.257 3.26 3.26 0 0 1 3.257 3.257 3.263 3.263 0 0 1-3.257 3.257zm6.383-8.472c0 .65-.523 1.169-1.169 1.169a1.169 1.169 0 1 1 1.169-1.169zm3.318 1.186c-.074-1.565-.432-2.952-1.579-4.094C17.485 1.235 16.1.877 14.533.8 12.92.707 8.085.707 6.471.799c-1.56.074-2.947.431-4.094 1.574C1.231 3.515.877 4.902.8 6.467c-.092 1.613-.092 6.448 0 8.062.074 1.565.432 2.952 1.578 4.094 1.147 1.142 2.53 1.5 4.094 1.578 1.614.092 6.449.092 8.062 0 1.566-.074 2.952-.431 4.094-1.578 1.143-1.142 1.5-2.529 1.579-4.094.091-1.614.091-6.445 0-8.058zm-2.084 9.789a3.297 3.297 0 0 1-1.858 1.857c-1.286.51-4.338.393-5.76.393-1.42 0-4.477.113-5.76-.393a3.297 3.297 0 0 1-1.857-1.857c-.51-1.287-.392-4.339-.392-5.76 0-1.421-.113-4.478.392-5.76a3.297 3.297 0 0 1 1.858-1.857c1.286-.51 4.338-.393 5.76-.393 1.42 0 4.477-.113 5.76.393.854.34 1.512.998 1.857 1.857.51 1.287.392 4.339.392 5.76 0 1.421.118 4.478-.392 5.76z" fill="#fff"/></svg>