<svg xmlns="http://www.w3.org/2000/svg" width="28" height="21"><path d="M26.166 7.28a.297.297 0 0 1 .48.232v10.101a2.372 2.372 0 0 1-2.371 2.371H3.725a2.372 2.372 0 0 1-2.37-2.37V7.515c0-.247.281-.385.479-.232 1.106.86 2.573 1.951 7.612 5.612 1.042.76 2.8 2.36 4.554 2.351 1.763.015 3.557-1.62 4.56-2.351 5.038-3.66 6.5-4.757 7.606-5.617zM14 13.66c1.146.02 2.796-1.442 3.626-2.045C24.18 6.86 24.68 6.445 26.19 5.26c.287-.222.455-.568.455-.934v-.938a2.372 2.372 0 0 0-2.371-2.371H3.725a2.372 2.372 0 0 0-2.37 2.37v.94c0 .365.167.706.454.933 1.511 1.18 2.01 1.6 8.565 6.357.83.603 2.48 2.065 3.626 2.045z" fill="#fff"/></svg>